solid simple cooling plate
   facet normal -1.000000e+00 -0.000000e+00 -0.000000e+00
      outer loop
         vertex 0.000000e+00 5.700000e+00 4.953000e+02
         vertex 0.000000e+00 5.700000e+00 0.000000e+00
         vertex 0.000000e+00 0.000000e+00 4.953000e+02
      endloop
   endfacet
   facet normal -1.000000e+00 0.000000e+00 0.000000e+00
      outer loop
         vertex 0.000000e+00 0.000000e+00 4.953000e+02
         vertex 0.000000e+00 5.700000e+00 0.000000e+00
         vertex 0.000000e+00 0.000000e+00 0.000000e+00
      endloop
   endfacet
   facet normal 0.000000e+00 0.000000e+00 1.000000e+00
      outer loop
         vertex 6.731000e+02 5.700000e+00 4.953000e+02
         vertex 0.000000e+00 5.700000e+00 4.953000e+02
         vertex 6.731000e+02 0.000000e+00 4.953000e+02
      endloop
   endfacet
   facet normal 0.000000e+00 0.000000e+00 1.000000e+00
      outer loop
         vertex 6.731000e+02 0.000000e+00 4.953000e+02
         vertex 0.000000e+00 5.700000e+00 4.953000e+02
         vertex 0.000000e+00 0.000000e+00 4.953000e+02
      endloop
   endfacet
   facet normal 1.000000e+00 0.000000e+00 -0.000000e+00
      outer loop
         vertex 6.731000e+02 5.700000e+00 0.000000e+00
         vertex 6.731000e+02 5.700000e+00 4.953000e+02
         vertex 6.731000e+02 0.000000e+00 0.000000e+00
      endloop
   endfacet
   facet normal 1.000000e+00 0.000000e+00 0.000000e+00
      outer loop
         vertex 6.731000e+02 0.000000e+00 0.000000e+00
         vertex 6.731000e+02 5.700000e+00 4.953000e+02
         vertex 6.731000e+02 0.000000e+00 4.953000e+02
      endloop
   endfacet
   facet normal 0.000000e+00 0.000000e+00 -1.000000e+00
      outer loop
         vertex 0.000000e+00 5.700000e+00 0.000000e+00
         vertex 6.731000e+02 5.700000e+00 0.000000e+00
         vertex 0.000000e+00 0.000000e+00 0.000000e+00
      endloop
   endfacet
   facet normal 0.000000e+00 0.000000e+00 -1.000000e+00
      outer loop
         vertex 0.000000e+00 0.000000e+00 0.000000e+00
         vertex 6.731000e+02 5.700000e+00 0.000000e+00
         vertex 6.731000e+02 0.000000e+00 0.000000e+00
      endloop
   endfacet
   facet normal 0.000000e+00 1.000000e+00 0.000000e+00
      outer loop
         vertex 6.731000e+02 5.700000e+00 4.953000e+02
         vertex 6.731000e+02 5.700000e+00 0.000000e+00
         vertex 0.000000e+00 5.700000e+00 4.953000e+02
      endloop
   endfacet
   facet normal 0.000000e+00 1.000000e+00 0.000000e+00
      outer loop
         vertex 0.000000e+00 5.700000e+00 4.953000e+02
         vertex 6.731000e+02 5.700000e+00 0.000000e+00
         vertex 0.000000e+00 5.700000e+00 0.000000e+00
      endloop
   endfacet
   facet normal 0.000000e+00 -1.000000e+00 0.000000e+00
      outer loop
         vertex 6.731000e+02 0.000000e+00 0.000000e+00
         vertex 6.731000e+02 0.000000e+00 4.953000e+02
         vertex 0.000000e+00 0.000000e+00 0.000000e+00
      endloop
   endfacet
   facet normal 0.000000e+00 -1.000000e+00 0.000000e+00
      outer loop
         vertex 0.000000e+00 0.000000e+00 0.000000e+00
         vertex 6.731000e+02 0.000000e+00 4.953000e+02
         vertex 0.000000e+00 0.000000e+00 4.953000e+02
      endloop
   endfacet
endsolid