solid ECAL_mezzanine V2
   facet normal -1.000000e+00 -0.000000e+00 -0.000000e+00
      outer loop
         vertex 0.000000e+00 1.600000e+00 8.080000e+01
         vertex 0.000000e+00 1.600000e+00 7.999986e-01
         vertex 0.000000e+00 0.000000e+00 8.080000e+01
      endloop
   endfacet
   facet normal -1.000000e+00 0.000000e+00 0.000000e+00
      outer loop
         vertex 0.000000e+00 0.000000e+00 8.080000e+01
         vertex 0.000000e+00 1.600000e+00 7.999986e-01
         vertex 0.000000e+00 0.000000e+00 7.999986e-01
      endloop
   endfacet
   facet normal 0.000000e+00 0.000000e+00 1.000000e+00
      outer loop
         vertex 8.000000e+01 1.600000e+00 8.080000e+01
         vertex 0.000000e+00 1.600000e+00 8.080000e+01
         vertex 8.000000e+01 0.000000e+00 8.080000e+01
      endloop
   endfacet
   facet normal 0.000000e+00 0.000000e+00 1.000000e+00
      outer loop
         vertex 8.000000e+01 0.000000e+00 8.080000e+01
         vertex 0.000000e+00 1.600000e+00 8.080000e+01
         vertex 0.000000e+00 0.000000e+00 8.080000e+01
      endloop
   endfacet
   facet normal 1.000000e+00 0.000000e+00 -0.000000e+00
      outer loop
         vertex 8.000000e+01 1.600000e+00 7.999986e-01
         vertex 8.000000e+01 1.600000e+00 8.080000e+01
         vertex 8.000000e+01 0.000000e+00 7.999986e-01
      endloop
   endfacet
   facet normal 1.000000e+00 0.000000e+00 0.000000e+00
      outer loop
         vertex 8.000000e+01 0.000000e+00 7.999986e-01
         vertex 8.000000e+01 1.600000e+00 8.080000e+01
         vertex 8.000000e+01 0.000000e+00 8.080000e+01
      endloop
   endfacet
   facet normal 0.000000e+00 0.000000e+00 -1.000000e+00
      outer loop
         vertex 0.000000e+00 1.600000e+00 7.999986e-01
         vertex 8.000000e+01 1.600000e+00 7.999986e-01
         vertex 0.000000e+00 0.000000e+00 7.999986e-01
      endloop
   endfacet
   facet normal 0.000000e+00 0.000000e+00 -1.000000e+00
      outer loop
         vertex 0.000000e+00 0.000000e+00 7.999986e-01
         vertex 8.000000e+01 1.600000e+00 7.999986e-01
         vertex 8.000000e+01 0.000000e+00 7.999986e-01
      endloop
   endfacet
   facet normal 0.000000e+00 1.000000e+00 0.000000e+00
      outer loop
         vertex 8.000000e+01 1.600000e+00 8.080000e+01
         vertex 8.000000e+01 1.600000e+00 7.999986e-01
         vertex 0.000000e+00 1.600000e+00 8.080000e+01
      endloop
   endfacet
   facet normal 0.000000e+00 1.000000e+00 0.000000e+00
      outer loop
         vertex 0.000000e+00 1.600000e+00 8.080000e+01
         vertex 8.000000e+01 1.600000e+00 7.999986e-01
         vertex 0.000000e+00 1.600000e+00 7.999986e-01
      endloop
   endfacet
   facet normal 0.000000e+00 -1.000000e+00 0.000000e+00
      outer loop
         vertex 8.000000e+01 0.000000e+00 7.999986e-01
         vertex 8.000000e+01 0.000000e+00 8.080000e+01
         vertex 0.000000e+00 0.000000e+00 7.999986e-01
      endloop
   endfacet
   facet normal 0.000000e+00 -1.000000e+00 0.000000e+00
      outer loop
         vertex 0.000000e+00 0.000000e+00 7.999986e-01
         vertex 8.000000e+01 0.000000e+00 8.080000e+01
         vertex 0.000000e+00 0.000000e+00 8.080000e+01
      endloop
   endfacet
   facet normal -1.000000e+00 -0.000000e+00 -0.000000e+00
      outer loop
         vertex 9.000000e+00 6.600000e+00 2.080000e+01
         vertex 9.000000e+00 6.600000e+00 1.280000e+01
         vertex 9.000000e+00 1.600000e+00 2.080000e+01
      endloop
   endfacet
   facet normal -1.000000e+00 0.000000e+00 0.000000e+00
      outer loop
         vertex 9.000000e+00 1.600000e+00 2.080000e+01
         vertex 9.000000e+00 6.600000e+00 1.280000e+01
         vertex 9.000000e+00 1.600000e+00 1.280000e+01
      endloop
   endfacet
   facet normal 0.000000e+00 0.000000e+00 1.000000e+00
      outer loop
         vertex 7.100000e+01 6.600000e+00 2.080000e+01
         vertex 9.000000e+00 6.600000e+00 2.080000e+01
         vertex 7.100000e+01 1.600000e+00 2.080000e+01
      endloop
   endfacet
   facet normal 0.000000e+00 0.000000e+00 1.000000e+00
      outer loop
         vertex 7.100000e+01 1.600000e+00 2.080000e+01
         vertex 9.000000e+00 6.600000e+00 2.080000e+01
         vertex 9.000000e+00 1.600000e+00 2.080000e+01
      endloop
   endfacet
   facet normal 1.000000e+00 0.000000e+00 -0.000000e+00
      outer loop
         vertex 7.100000e+01 6.600000e+00 1.280000e+01
         vertex 7.100000e+01 6.600000e+00 2.080000e+01
         vertex 7.100000e+01 1.600000e+00 1.280000e+01
      endloop
   endfacet
   facet normal 1.000000e+00 0.000000e+00 0.000000e+00
      outer loop
         vertex 7.100000e+01 1.600000e+00 1.280000e+01
         vertex 7.100000e+01 6.600000e+00 2.080000e+01
         vertex 7.100000e+01 1.600000e+00 2.080000e+01
      endloop
   endfacet
   facet normal 0.000000e+00 0.000000e+00 -1.000000e+00
      outer loop
         vertex 9.000000e+00 6.600000e+00 1.280000e+01
         vertex 7.100000e+01 6.600000e+00 1.280000e+01
         vertex 9.000000e+00 1.600000e+00 1.280000e+01
      endloop
   endfacet
   facet normal 0.000000e+00 0.000000e+00 -1.000000e+00
      outer loop
         vertex 9.000000e+00 1.600000e+00 1.280000e+01
         vertex 7.100000e+01 6.600000e+00 1.280000e+01
         vertex 7.100000e+01 1.600000e+00 1.280000e+01
      endloop
   endfacet
   facet normal 0.000000e+00 1.000000e+00 0.000000e+00
      outer loop
         vertex 7.100000e+01 6.600000e+00 2.080000e+01
         vertex 7.100000e+01 6.600000e+00 1.280000e+01
         vertex 9.000000e+00 6.600000e+00 2.080000e+01
      endloop
   endfacet
   facet normal 0.000000e+00 1.000000e+00 0.000000e+00
      outer loop
         vertex 9.000000e+00 6.600000e+00 2.080000e+01
         vertex 7.100000e+01 6.600000e+00 1.280000e+01
         vertex 9.000000e+00 6.600000e+00 1.280000e+01
      endloop
   endfacet
   facet normal 0.000000e+00 -1.000000e+00 0.000000e+00
      outer loop
         vertex 7.100000e+01 1.600000e+00 1.280000e+01
         vertex 7.100000e+01 1.600000e+00 2.080000e+01
         vertex 9.000000e+00 1.600000e+00 1.280000e+01
      endloop
   endfacet
   facet normal 0.000000e+00 -1.000000e+00 0.000000e+00
      outer loop
         vertex 9.000000e+00 1.600000e+00 1.280000e+01
         vertex 7.100000e+01 1.600000e+00 2.080000e+01
         vertex 9.000000e+00 1.600000e+00 2.080000e+01
      endloop
   endfacet
   facet normal -1.000000e+00 -0.000000e+00 -0.000000e+00
      outer loop
         vertex 2.850000e+01 4.600000e+00 5.230000e+01
         vertex 2.850000e+01 4.600000e+00 2.930000e+01
         vertex 2.850000e+01 1.600000e+00 5.230000e+01
      endloop
   endfacet
   facet normal -1.000000e+00 0.000000e+00 0.000000e+00
      outer loop
         vertex 2.850000e+01 1.600000e+00 5.230000e+01
         vertex 2.850000e+01 4.600000e+00 2.930000e+01
         vertex 2.850000e+01 1.600000e+00 2.930000e+01
      endloop
   endfacet
   facet normal 0.000000e+00 0.000000e+00 1.000000e+00
      outer loop
         vertex 5.150000e+01 4.600000e+00 5.230000e+01
         vertex 2.850000e+01 4.600000e+00 5.230000e+01
         vertex 5.150000e+01 1.600000e+00 5.230000e+01
      endloop
   endfacet
   facet normal 0.000000e+00 0.000000e+00 1.000000e+00
      outer loop
         vertex 5.150000e+01 1.600000e+00 5.230000e+01
         vertex 2.850000e+01 4.600000e+00 5.230000e+01
         vertex 2.850000e+01 1.600000e+00 5.230000e+01
      endloop
   endfacet
   facet normal 1.000000e+00 0.000000e+00 -0.000000e+00
      outer loop
         vertex 5.150000e+01 4.600000e+00 2.930000e+01
         vertex 5.150000e+01 4.600000e+00 5.230000e+01
         vertex 5.150000e+01 1.600000e+00 2.930000e+01
      endloop
   endfacet
   facet normal 1.000000e+00 0.000000e+00 0.000000e+00
      outer loop
         vertex 5.150000e+01 1.600000e+00 2.930000e+01
         vertex 5.150000e+01 4.600000e+00 5.230000e+01
         vertex 5.150000e+01 1.600000e+00 5.230000e+01
      endloop
   endfacet
   facet normal 0.000000e+00 0.000000e+00 -1.000000e+00
      outer loop
         vertex 2.850000e+01 4.600000e+00 2.930000e+01
         vertex 5.150000e+01 4.600000e+00 2.930000e+01
         vertex 2.850000e+01 1.600000e+00 2.930000e+01
      endloop
   endfacet
   facet normal 0.000000e+00 0.000000e+00 -1.000000e+00
      outer loop
         vertex 2.850000e+01 1.600000e+00 2.930000e+01
         vertex 5.150000e+01 4.600000e+00 2.930000e+01
         vertex 5.150000e+01 1.600000e+00 2.930000e+01
      endloop
   endfacet
   facet normal 0.000000e+00 1.000000e+00 0.000000e+00
      outer loop
         vertex 5.150000e+01 4.600000e+00 5.230000e+01
         vertex 5.150000e+01 4.600000e+00 2.930000e+01
         vertex 2.850000e+01 4.600000e+00 5.230000e+01
      endloop
   endfacet
   facet normal 0.000000e+00 1.000000e+00 0.000000e+00
      outer loop
         vertex 2.850000e+01 4.600000e+00 5.230000e+01
         vertex 5.150000e+01 4.600000e+00 2.930000e+01
         vertex 2.850000e+01 4.600000e+00 2.930000e+01
      endloop
   endfacet
   facet normal 0.000000e+00 -1.000000e+00 0.000000e+00
      outer loop
         vertex 5.150000e+01 1.600000e+00 2.930000e+01
         vertex 5.150000e+01 1.600000e+00 5.230000e+01
         vertex 2.850000e+01 1.600000e+00 2.930000e+01
      endloop
   endfacet
   facet normal 0.000000e+00 -1.000000e+00 0.000000e+00
      outer loop
         vertex 2.850000e+01 1.600000e+00 2.930000e+01
         vertex 5.150000e+01 1.600000e+00 5.230000e+01
         vertex 2.850000e+01 1.600000e+00 5.230000e+01
      endloop
   endfacet
   facet normal -1.000000e+00 -0.000000e+00 -0.000000e+00
      outer loop
         vertex 9.000000e+00 6.600000e+00 6.880000e+01
         vertex 9.000000e+00 6.600000e+00 6.080000e+01
         vertex 9.000000e+00 1.600000e+00 6.880000e+01
      endloop
   endfacet
   facet normal -1.000000e+00 0.000000e+00 0.000000e+00
      outer loop
         vertex 9.000000e+00 1.600000e+00 6.880000e+01
         vertex 9.000000e+00 6.600000e+00 6.080000e+01
         vertex 9.000000e+00 1.600000e+00 6.080000e+01
      endloop
   endfacet
   facet normal 0.000000e+00 0.000000e+00 1.000000e+00
      outer loop
         vertex 7.100000e+01 6.600000e+00 6.880000e+01
         vertex 9.000000e+00 6.600000e+00 6.880000e+01
         vertex 7.100000e+01 1.600000e+00 6.880000e+01
      endloop
   endfacet
   facet normal 0.000000e+00 0.000000e+00 1.000000e+00
      outer loop
         vertex 7.100000e+01 1.600000e+00 6.880000e+01
         vertex 9.000000e+00 6.600000e+00 6.880000e+01
         vertex 9.000000e+00 1.600000e+00 6.880000e+01
      endloop
   endfacet
   facet normal 1.000000e+00 0.000000e+00 -0.000000e+00
      outer loop
         vertex 7.100000e+01 6.600000e+00 6.080000e+01
         vertex 7.100000e+01 6.600000e+00 6.880000e+01
         vertex 7.100000e+01 1.600000e+00 6.080000e+01
      endloop
   endfacet
   facet normal 1.000000e+00 0.000000e+00 0.000000e+00
      outer loop
         vertex 7.100000e+01 1.600000e+00 6.080000e+01
         vertex 7.100000e+01 6.600000e+00 6.880000e+01
         vertex 7.100000e+01 1.600000e+00 6.880000e+01
      endloop
   endfacet
   facet normal 0.000000e+00 0.000000e+00 -1.000000e+00
      outer loop
         vertex 9.000000e+00 6.600000e+00 6.080000e+01
         vertex 7.100000e+01 6.600000e+00 6.080000e+01
         vertex 9.000000e+00 1.600000e+00 6.080000e+01
      endloop
   endfacet
   facet normal 0.000000e+00 0.000000e+00 -1.000000e+00
      outer loop
         vertex 9.000000e+00 1.600000e+00 6.080000e+01
         vertex 7.100000e+01 6.600000e+00 6.080000e+01
         vertex 7.100000e+01 1.600000e+00 6.080000e+01
      endloop
   endfacet
   facet normal 0.000000e+00 1.000000e+00 0.000000e+00
      outer loop
         vertex 7.100000e+01 6.600000e+00 6.880000e+01
         vertex 7.100000e+01 6.600000e+00 6.080000e+01
         vertex 9.000000e+00 6.600000e+00 6.880000e+01
      endloop
   endfacet
   facet normal 0.000000e+00 1.000000e+00 0.000000e+00
      outer loop
         vertex 9.000000e+00 6.600000e+00 6.880000e+01
         vertex 7.100000e+01 6.600000e+00 6.080000e+01
         vertex 9.000000e+00 6.600000e+00 6.080000e+01
      endloop
   endfacet
   facet normal 0.000000e+00 -1.000000e+00 0.000000e+00
      outer loop
         vertex 7.100000e+01 1.600000e+00 6.080000e+01
         vertex 7.100000e+01 1.600000e+00 6.880000e+01
         vertex 9.000000e+00 1.600000e+00 6.080000e+01
      endloop
   endfacet
   facet normal 0.000000e+00 -1.000000e+00 0.000000e+00
      outer loop
         vertex 9.000000e+00 1.600000e+00 6.080000e+01
         vertex 7.100000e+01 1.600000e+00 6.880000e+01
         vertex 9.000000e+00 1.600000e+00 6.880000e+01
      endloop
   endfacet
endsolid