solid Side Motherboard 5
   facet normal 4.921835e-01 0.000000e+00 8.704915e-01
      outer loop
         vertex 1.820325e+02 1.500000e+00 3.788771e+02
         vertex 8.265631e+01 1.500000e+00 4.350652e+02
         vertex 1.820325e+02 0.000000e+00 3.788771e+02
      endloop
   endfacet
   facet normal 4.921835e-01 0.000000e+00 8.704915e-01
      outer loop
         vertex 1.820325e+02 0.000000e+00 3.788771e+02
         vertex 8.265631e+01 1.500000e+00 4.350652e+02
         vertex 8.265631e+01 0.000000e+00 4.350652e+02
      endloop
   endfacet
   facet normal -4.999999e-01 0.000000e+00 8.660254e-01
      outer loop
         vertex 2.328325e+02 1.500000e+00 4.082065e+02
         vertex 1.820325e+02 1.500000e+00 3.788771e+02
         vertex 2.328325e+02 0.000000e+00 4.082065e+02
      endloop
   endfacet
   facet normal -4.999999e-01 0.000000e+00 8.660254e-01
      outer loop
         vertex 2.328325e+02 0.000000e+00 4.082065e+02
         vertex 1.820325e+02 1.500000e+00 3.788771e+02
         vertex 1.820325e+02 0.000000e+00 3.788771e+02
      endloop
   endfacet
   facet normal 4.999999e-01 0.000000e+00 8.660254e-01
      outer loop
         vertex 2.836325e+02 1.500000e+00 3.788771e+02
         vertex 2.328325e+02 1.500000e+00 4.082065e+02
         vertex 2.836325e+02 0.000000e+00 3.788771e+02
      endloop
   endfacet
   facet normal 4.999999e-01 0.000000e+00 8.660254e-01
      outer loop
         vertex 2.836325e+02 0.000000e+00 3.788771e+02
         vertex 2.328325e+02 1.500000e+00 4.082065e+02
         vertex 2.328325e+02 0.000000e+00 4.082065e+02
      endloop
   endfacet
   facet normal 1.000000e+00 0.000000e+00 -0.000000e+00
      outer loop
         vertex 2.836325e+02 1.500000e+00 3.202183e+02
         vertex 2.836325e+02 1.500000e+00 3.788771e+02
         vertex 2.836325e+02 0.000000e+00 3.202183e+02
      endloop
   endfacet
   facet normal 1.000000e+00 0.000000e+00 0.000000e+00
      outer loop
         vertex 2.836325e+02 0.000000e+00 3.202183e+02
         vertex 2.836325e+02 1.500000e+00 3.788771e+02
         vertex 2.836325e+02 0.000000e+00 3.788771e+02
      endloop
   endfacet
   facet normal 5.000000e-01 0.000000e+00 -8.660254e-01
      outer loop
         vertex 2.328325e+02 1.500000e+00 2.908889e+02
         vertex 2.836325e+02 1.500000e+00 3.202183e+02
         vertex 2.328325e+02 8.673617e-16 2.908889e+02
      endloop
   endfacet
   facet normal 5.000000e-01 0.000000e+00 -8.660254e-01
      outer loop
         vertex 2.328325e+02 8.673617e-16 2.908889e+02
         vertex 2.836325e+02 1.500000e+00 3.202183e+02
         vertex 2.836325e+02 8.673617e-16 3.202183e+02
      endloop
   endfacet
   facet normal 8.660254e-01 0.000000e+00 -5.000000e-01
      outer loop
         vertex 1.996601e+02 1.500000e+00 2.334326e+02
         vertex 2.328325e+02 1.500000e+00 2.908889e+02
         vertex 1.996601e+02 0.000000e+00 2.334326e+02
      endloop
   endfacet
   facet normal 8.660254e-01 0.000000e+00 -5.000000e-01
      outer loop
         vertex 1.996601e+02 0.000000e+00 2.334326e+02
         vertex 2.328325e+02 1.500000e+00 2.908889e+02
         vertex 2.328325e+02 0.000000e+00 2.908889e+02
      endloop
   endfacet
   facet normal 1.000000e+00 0.000000e+00 -0.000000e+00
      outer loop
         vertex 1.996601e+02 1.500000e+00 1.747739e+02
         vertex 1.996601e+02 1.500000e+00 2.334326e+02
         vertex 1.996601e+02 0.000000e+00 1.747739e+02
      endloop
   endfacet
   facet normal 1.000000e+00 0.000000e+00 0.000000e+00
      outer loop
         vertex 1.996601e+02 0.000000e+00 1.747739e+02
         vertex 1.996601e+02 1.500000e+00 2.334326e+02
         vertex 1.996601e+02 0.000000e+00 2.334326e+02
      endloop
   endfacet
   facet normal 8.660254e-01 0.000000e+00 5.000000e-01
      outer loop
         vertex 2.328325e+02 1.500000e+00 1.173176e+02
         vertex 1.996601e+02 1.500000e+00 1.747739e+02
         vertex 2.328325e+02 0.000000e+00 1.173176e+02
      endloop
   endfacet
   facet normal 8.660254e-01 0.000000e+00 5.000000e-01
      outer loop
         vertex 2.328325e+02 0.000000e+00 1.173176e+02
         vertex 1.996601e+02 1.500000e+00 1.747739e+02
         vertex 1.996601e+02 0.000000e+00 1.747739e+02
      endloop
   endfacet
   facet normal 5.000000e-01 0.000000e+00 8.660254e-01
      outer loop
         vertex 2.836325e+02 1.500000e+00 8.798818e+01
         vertex 2.328325e+02 1.500000e+00 1.173176e+02
         vertex 2.836325e+02 -8.673617e-16 8.798818e+01
      endloop
   endfacet
   facet normal 5.000000e-01 0.000000e+00 8.660254e-01
      outer loop
         vertex 2.836325e+02 -8.673617e-16 8.798818e+01
         vertex 2.328325e+02 1.500000e+00 1.173176e+02
         vertex 2.328325e+02 -8.673617e-16 1.173176e+02
      endloop
   endfacet
   facet normal 1.000000e+00 0.000000e+00 -0.000000e+00
      outer loop
         vertex 2.836325e+02 1.500000e+00 2.932939e+01
         vertex 2.836325e+02 1.500000e+00 8.798818e+01
         vertex 2.836325e+02 0.000000e+00 2.932939e+01
      endloop
   endfacet
   facet normal 1.000000e+00 0.000000e+00 0.000000e+00
      outer loop
         vertex 2.836325e+02 0.000000e+00 2.932939e+01
         vertex 2.836325e+02 1.500000e+00 8.798818e+01
         vertex 2.836325e+02 0.000000e+00 8.798818e+01
      endloop
   endfacet
   facet normal 4.999999e-01 0.000000e+00 -8.660254e-01
      outer loop
         vertex 2.328325e+02 1.500000e+00 0.000000e+00
         vertex 2.836325e+02 1.500000e+00 2.932939e+01
         vertex 2.328325e+02 0.000000e+00 0.000000e+00
      endloop
   endfacet
   facet normal 4.999999e-01 0.000000e+00 -8.660254e-01
      outer loop
         vertex 2.328325e+02 0.000000e+00 0.000000e+00
         vertex 2.836325e+02 1.500000e+00 2.932939e+01
         vertex 2.836325e+02 0.000000e+00 2.932939e+01
      endloop
   endfacet
   facet normal -4.999999e-01 -0.000000e+00 -8.660254e-01
      outer loop
         vertex 1.820325e+02 1.500000e+00 2.932939e+01
         vertex 2.328325e+02 1.500000e+00 0.000000e+00
         vertex 1.820325e+02 0.000000e+00 2.932939e+01
      endloop
   endfacet
   facet normal -4.999999e-01 0.000000e+00 -8.660254e-01
      outer loop
         vertex 1.820325e+02 0.000000e+00 2.932939e+01
         vertex 2.328325e+02 1.500000e+00 0.000000e+00
         vertex 2.328325e+02 0.000000e+00 0.000000e+00
      endloop
   endfacet
   facet normal -1.000000e+00 -0.000000e+00 -0.000000e+00
      outer loop
         vertex 1.820325e+02 1.500000e+00 8.798818e+01
         vertex 1.820325e+02 1.500000e+00 2.932939e+01
         vertex 1.820325e+02 0.000000e+00 8.798818e+01
      endloop
   endfacet
   facet normal -1.000000e+00 0.000000e+00 0.000000e+00
      outer loop
         vertex 1.820325e+02 0.000000e+00 8.798818e+01
         vertex 1.820325e+02 1.500000e+00 2.932939e+01
         vertex 1.820325e+02 0.000000e+00 2.932939e+01
      endloop
   endfacet
   facet normal -8.660254e-01 -0.000000e+00 -5.000000e-01
      outer loop
         vertex 1.488601e+02 1.500000e+00 1.454445e+02
         vertex 1.820325e+02 1.500000e+00 8.798818e+01
         vertex 1.488601e+02 0.000000e+00 1.454445e+02
      endloop
   endfacet
   facet normal -8.660254e-01 0.000000e+00 -5.000000e-01
      outer loop
         vertex 1.488601e+02 0.000000e+00 1.454445e+02
         vertex 1.820325e+02 1.500000e+00 8.798818e+01
         vertex 1.820325e+02 0.000000e+00 8.798818e+01
      endloop
   endfacet
   facet normal -5.000000e-01 -0.000000e+00 -8.660254e-01
      outer loop
         vertex 9.806006e+01 1.500000e+00 1.747739e+02
         vertex 1.488601e+02 1.500000e+00 1.454445e+02
         vertex 9.806006e+01 0.000000e+00 1.747739e+02
      endloop
   endfacet
   facet normal -5.000000e-01 0.000000e+00 -8.660254e-01
      outer loop
         vertex 9.806006e+01 0.000000e+00 1.747739e+02
         vertex 1.488601e+02 1.500000e+00 1.454445e+02
         vertex 1.488601e+02 0.000000e+00 1.454445e+02
      endloop
   endfacet
   facet normal -1.000000e+00 -0.000000e+00 -0.000000e+00
      outer loop
         vertex 9.806006e+01 1.500000e+00 2.334326e+02
         vertex 9.806006e+01 1.500000e+00 1.747739e+02
         vertex 9.806006e+01 0.000000e+00 2.334326e+02
      endloop
   endfacet
   facet normal -1.000000e+00 0.000000e+00 0.000000e+00
      outer loop
         vertex 9.806006e+01 0.000000e+00 2.334326e+02
         vertex 9.806006e+01 1.500000e+00 1.747739e+02
         vertex 9.806006e+01 0.000000e+00 1.747739e+02
      endloop
   endfacet
   facet normal -4.921835e-01 -0.000000e+00 -8.704915e-01
      outer loop
         vertex 0.000000e+00 1.500000e+00 2.888767e+02
         vertex 9.806006e+01 1.500000e+00 2.334326e+02
         vertex 0.000000e+00 8.673617e-16 2.888767e+02
      endloop
   endfacet
   facet normal -4.921835e-01 0.000000e+00 -8.704915e-01
      outer loop
         vertex 0.000000e+00 8.673617e-16 2.888767e+02
         vertex 9.806006e+01 1.500000e+00 2.334326e+02
         vertex 9.806006e+01 8.673617e-16 2.334326e+02
      endloop
   endfacet
   facet normal -8.704915e-01 0.000000e+00 4.921835e-01
      outer loop
         vertex 8.265631e+01 1.500000e+00 4.350652e+02
         vertex 0.000000e+00 1.500000e+00 2.888767e+02
         vertex 8.265631e+01 0.000000e+00 4.350652e+02
      endloop
   endfacet
   facet normal -8.704915e-01 0.000000e+00 4.921835e-01
      outer loop
         vertex 8.265631e+01 0.000000e+00 4.350652e+02
         vertex 0.000000e+00 1.500000e+00 2.888767e+02
         vertex 0.000000e+00 0.000000e+00 2.888767e+02
      endloop
   endfacet
   facet normal 0.000000e+00 1.000000e+00 0.000000e+00
      outer loop
         vertex 2.836325e+02 1.500000e+00 2.932939e+01
         vertex 2.328325e+02 1.500000e+00 0.000000e+00
         vertex 1.820325e+02 1.500000e+00 2.932939e+01
      endloop
   endfacet
   facet normal 0.000000e+00 1.000000e+00 0.000000e+00
      outer loop
         vertex 2.328325e+02 1.500000e+00 1.173176e+02
         vertex 2.836325e+02 1.500000e+00 8.798818e+01
         vertex 2.836325e+02 1.500000e+00 2.932939e+01
      endloop
   endfacet
   facet normal -0.000000e+00 1.000000e+00 0.000000e+00
      outer loop
         vertex 1.476039e+02 1.500000e+00 3.072907e+02
         vertex 1.820325e+02 1.500000e+00 3.788771e+02
         vertex 1.474592e+02 1.500000e+00 3.056367e+02
      endloop
   endfacet
   facet normal -0.000000e+00 1.000000e+00 0.000000e+00
      outer loop
         vertex 1.474592e+02 1.500000e+00 3.056367e+02
         vertex 1.820325e+02 1.500000e+00 3.788771e+02
         vertex 1.470294e+02 1.500000e+00 3.040330e+02
      endloop
   endfacet
   facet normal 0.000000e+00 1.000000e+00 0.000000e+00
      outer loop
         vertex 1.286986e+02 1.500000e+00 3.089447e+02
         vertex 1.285539e+02 1.500000e+00 3.072907e+02
         vertex 0.000000e+00 1.500000e+00 2.888767e+02
      endloop
   endfacet
   facet normal 0.000000e+00 1.000000e+00 0.000000e+00
      outer loop
         vertex 0.000000e+00 1.500000e+00 2.888767e+02
         vertex 1.285539e+02 1.500000e+00 3.072907e+02
         vertex 1.286986e+02 1.500000e+00 3.056367e+02
      endloop
   endfacet
   facet normal 0.000000e+00 1.000000e+00 0.000000e+00
      outer loop
         vertex 1.453754e+02 1.500000e+00 3.011682e+02
         vertex 1.463277e+02 1.500000e+00 3.025282e+02
         vertex 2.836325e+02 1.500000e+00 3.202183e+02
      endloop
   endfacet
   facet normal 0.000000e+00 1.000000e+00 0.000000e+00
      outer loop
         vertex 1.333164e+02 1.500000e+00 2.990419e+02
         vertex 1.348211e+02 1.500000e+00 2.983402e+02
         vertex 9.806006e+01 1.500000e+00 2.334326e+02
      endloop
   endfacet
   facet normal 0.000000e+00 1.000000e+00 -0.000000e+00
      outer loop
         vertex 1.996601e+02 1.500000e+00 1.747739e+02
         vertex 9.806006e+01 1.500000e+00 1.747739e+02
         vertex 1.996601e+02 1.500000e+00 2.334326e+02
      endloop
   endfacet
   facet normal 0.000000e+00 1.000000e+00 0.000000e+00
      outer loop
         vertex 1.996601e+02 1.500000e+00 2.334326e+02
         vertex 9.806006e+01 1.500000e+00 1.747739e+02
         vertex 9.806006e+01 1.500000e+00 2.334326e+02
      endloop
   endfacet
   facet normal 0.000000e+00 1.000000e+00 -0.000000e+00
      outer loop
         vertex 1.996601e+02 1.500000e+00 2.334326e+02
         vertex 9.806006e+01 1.500000e+00 2.334326e+02
         vertex 2.328325e+02 1.500000e+00 2.908889e+02
      endloop
   endfacet
   facet normal 0.000000e+00 1.000000e+00 -0.000000e+00
      outer loop
         vertex 2.328325e+02 1.500000e+00 2.908889e+02
         vertex 9.806006e+01 1.500000e+00 2.334326e+02
         vertex 2.836325e+02 1.500000e+00 3.202183e+02
      endloop
   endfacet
   facet normal 0.000000e+00 1.000000e+00 0.000000e+00
      outer loop
         vertex 2.836325e+02 1.500000e+00 2.932939e+01
         vertex 1.820325e+02 1.500000e+00 2.932939e+01
         vertex 2.328325e+02 1.500000e+00 1.173176e+02
      endloop
   endfacet
   facet normal 0.000000e+00 1.000000e+00 0.000000e+00
      outer loop
         vertex 2.328325e+02 1.500000e+00 1.173176e+02
         vertex 1.820325e+02 1.500000e+00 2.932939e+01
         vertex 1.820325e+02 1.500000e+00 8.798818e+01
      endloop
   endfacet
   facet normal 0.000000e+00 1.000000e+00 0.000000e+00
      outer loop
         vertex 2.328325e+02 1.500000e+00 1.173176e+02
         vertex 1.820325e+02 1.500000e+00 8.798818e+01
         vertex 1.996601e+02 1.500000e+00 1.747739e+02
      endloop
   endfacet
   facet normal 0.000000e+00 1.000000e+00 0.000000e+00
      outer loop
         vertex 1.996601e+02 1.500000e+00 1.747739e+02
         vertex 1.820325e+02 1.500000e+00 8.798818e+01
         vertex 1.488601e+02 1.500000e+00 1.454445e+02
      endloop
   endfacet
   facet normal 0.000000e+00 1.000000e+00 0.000000e+00
      outer loop
         vertex 1.996601e+02 1.500000e+00 1.747739e+02
         vertex 1.488601e+02 1.500000e+00 1.454445e+02
         vertex 9.806006e+01 1.500000e+00 1.747739e+02
      endloop
   endfacet
   facet normal 0.000000e+00 1.000000e+00 -0.000000e+00
      outer loop
         vertex 1.476039e+02 1.500000e+00 3.072907e+02
         vertex 1.474592e+02 1.500000e+00 3.089447e+02
         vertex 1.820325e+02 1.500000e+00 3.788771e+02
      endloop
   endfacet
   facet normal 0.000000e+00 1.000000e+00 0.000000e+00
      outer loop
         vertex 1.820325e+02 1.500000e+00 3.788771e+02
         vertex 1.474592e+02 1.500000e+00 3.089447e+02
         vertex 1.470294e+02 1.500000e+00 3.105485e+02
      endloop
   endfacet
   facet normal 0.000000e+00 1.000000e+00 0.000000e+00
      outer loop
         vertex 1.820325e+02 1.500000e+00 3.788771e+02
         vertex 1.470294e+02 1.500000e+00 3.105485e+02
         vertex 1.463277e+02 1.500000e+00 3.120532e+02
      endloop
   endfacet
   facet normal 0.000000e+00 1.000000e+00 -0.000000e+00
      outer loop
         vertex 1.463277e+02 1.500000e+00 3.120532e+02
         vertex 1.453754e+02 1.500000e+00 3.134133e+02
         vertex 1.820325e+02 1.500000e+00 3.788771e+02
      endloop
   endfacet
   facet normal 0.000000e+00 1.000000e+00 0.000000e+00
      outer loop
         vertex 1.820325e+02 1.500000e+00 3.788771e+02
         vertex 1.453754e+02 1.500000e+00 3.134133e+02
         vertex 1.442014e+02 1.500000e+00 3.145873e+02
      endloop
   endfacet
   facet normal 0.000000e+00 1.000000e+00 0.000000e+00
      outer loop
         vertex 1.820325e+02 1.500000e+00 3.788771e+02
         vertex 1.442014e+02 1.500000e+00 3.145873e+02
         vertex 1.428414e+02 1.500000e+00 3.155396e+02
      endloop
   endfacet
   facet normal -0.000000e+00 1.000000e+00 -0.000000e+00
      outer loop
         vertex 1.380789e+02 1.500000e+00 3.168157e+02
         vertex 8.265631e+01 1.500000e+00 4.350652e+02
         vertex 1.397329e+02 1.500000e+00 3.166710e+02
      endloop
   endfacet
   facet normal 0.000000e+00 1.000000e+00 -0.000000e+00
      outer loop
         vertex 1.397329e+02 1.500000e+00 3.166710e+02
         vertex 8.265631e+01 1.500000e+00 4.350652e+02
         vertex 1.820325e+02 1.500000e+00 3.788771e+02
      endloop
   endfacet
   facet normal -0.000000e+00 1.000000e+00 0.000000e+00
      outer loop
         vertex 1.397329e+02 1.500000e+00 3.166710e+02
         vertex 1.820325e+02 1.500000e+00 3.788771e+02
         vertex 1.413366e+02 1.500000e+00 3.162413e+02
      endloop
   endfacet
   facet normal -0.000000e+00 1.000000e+00 0.000000e+00
      outer loop
         vertex 1.413366e+02 1.500000e+00 3.162413e+02
         vertex 1.820325e+02 1.500000e+00 3.788771e+02
         vertex 1.428414e+02 1.500000e+00 3.155396e+02
      endloop
   endfacet
   facet normal 0.000000e+00 1.000000e+00 0.000000e+00
      outer loop
         vertex 1.380789e+02 1.500000e+00 3.168157e+02
         vertex 1.364249e+02 1.500000e+00 3.166710e+02
         vertex 8.265631e+01 1.500000e+00 4.350652e+02
      endloop
   endfacet
   facet normal 0.000000e+00 1.000000e+00 0.000000e+00
      outer loop
         vertex 8.265631e+01 1.500000e+00 4.350652e+02
         vertex 1.364249e+02 1.500000e+00 3.166710e+02
         vertex 1.348211e+02 1.500000e+00 3.162413e+02
      endloop
   endfacet
   facet normal 0.000000e+00 1.000000e+00 0.000000e+00
      outer loop
         vertex 8.265631e+01 1.500000e+00 4.350652e+02
         vertex 1.348211e+02 1.500000e+00 3.162413e+02
         vertex 1.333164e+02 1.500000e+00 3.155396e+02
      endloop
   endfacet
   facet normal 0.000000e+00 1.000000e+00 0.000000e+00
      outer loop
         vertex 8.265631e+01 1.500000e+00 4.350652e+02
         vertex 1.298300e+02 1.500000e+00 3.120532e+02
         vertex 0.000000e+00 1.500000e+00 2.888767e+02
      endloop
   endfacet
   facet normal 0.000000e+00 1.000000e+00 0.000000e+00
      outer loop
         vertex 0.000000e+00 1.500000e+00 2.888767e+02
         vertex 1.298300e+02 1.500000e+00 3.120532e+02
         vertex 1.291283e+02 1.500000e+00 3.105485e+02
      endloop
   endfacet
   facet normal 0.000000e+00 1.000000e+00 0.000000e+00
      outer loop
         vertex 0.000000e+00 1.500000e+00 2.888767e+02
         vertex 1.291283e+02 1.500000e+00 3.105485e+02
         vertex 1.286986e+02 1.500000e+00 3.089447e+02
      endloop
   endfacet
   facet normal 0.000000e+00 1.000000e+00 0.000000e+00
      outer loop
         vertex 1.333164e+02 1.500000e+00 3.155396e+02
         vertex 1.319563e+02 1.500000e+00 3.145873e+02
         vertex 8.265631e+01 1.500000e+00 4.350652e+02
      endloop
   endfacet
   facet normal 0.000000e+00 1.000000e+00 0.000000e+00
      outer loop
         vertex 8.265631e+01 1.500000e+00 4.350652e+02
         vertex 1.319563e+02 1.500000e+00 3.145873e+02
         vertex 1.307823e+02 1.500000e+00 3.134133e+02
      endloop
   endfacet
   facet normal 0.000000e+00 1.000000e+00 0.000000e+00
      outer loop
         vertex 8.265631e+01 1.500000e+00 4.350652e+02
         vertex 1.307823e+02 1.500000e+00 3.134133e+02
         vertex 1.298300e+02 1.500000e+00 3.120532e+02
      endloop
   endfacet
   facet normal 0.000000e+00 1.000000e+00 0.000000e+00
      outer loop
         vertex 1.333164e+02 1.500000e+00 2.990419e+02
         vertex 9.806006e+01 1.500000e+00 2.334326e+02
         vertex 1.319563e+02 1.500000e+00 2.999942e+02
      endloop
   endfacet
   facet normal 0.000000e+00 1.000000e+00 0.000000e+00
      outer loop
         vertex 2.328325e+02 1.500000e+00 4.082065e+02
         vertex 2.836325e+02 1.500000e+00 3.788771e+02
         vertex 1.820325e+02 1.500000e+00 3.788771e+02
      endloop
   endfacet
   facet normal -0.000000e+00 1.000000e+00 0.000000e+00
      outer loop
         vertex 1.820325e+02 1.500000e+00 3.788771e+02
         vertex 2.836325e+02 1.500000e+00 3.788771e+02
         vertex 2.836325e+02 1.500000e+00 3.202183e+02
      endloop
   endfacet
   facet normal 0.000000e+00 1.000000e+00 0.000000e+00
      outer loop
         vertex 1.820325e+02 1.500000e+00 3.788771e+02
         vertex 2.836325e+02 1.500000e+00 3.202183e+02
         vertex 1.470294e+02 1.500000e+00 3.040330e+02
      endloop
   endfacet
   facet normal -0.000000e+00 1.000000e+00 0.000000e+00
      outer loop
         vertex 1.470294e+02 1.500000e+00 3.040330e+02
         vertex 2.836325e+02 1.500000e+00 3.202183e+02
         vertex 1.463277e+02 1.500000e+00 3.025282e+02
      endloop
   endfacet
   facet normal 0.000000e+00 1.000000e+00 0.000000e+00
      outer loop
         vertex 1.286986e+02 1.500000e+00 3.056367e+02
         vertex 1.291283e+02 1.500000e+00 3.040330e+02
         vertex 0.000000e+00 1.500000e+00 2.888767e+02
      endloop
   endfacet
   facet normal 0.000000e+00 1.000000e+00 0.000000e+00
      outer loop
         vertex 0.000000e+00 1.500000e+00 2.888767e+02
         vertex 1.291283e+02 1.500000e+00 3.040330e+02
         vertex 1.298300e+02 1.500000e+00 3.025282e+02
      endloop
   endfacet
   facet normal -0.000000e+00 1.000000e+00 0.000000e+00
      outer loop
         vertex 0.000000e+00 1.500000e+00 2.888767e+02
         vertex 1.298300e+02 1.500000e+00 3.025282e+02
         vertex 9.806006e+01 1.500000e+00 2.334326e+02
      endloop
   endfacet
   facet normal 0.000000e+00 1.000000e+00 0.000000e+00
      outer loop
         vertex 9.806006e+01 1.500000e+00 2.334326e+02
         vertex 1.298300e+02 1.500000e+00 3.025282e+02
         vertex 1.307823e+02 1.500000e+00 3.011682e+02
      endloop
   endfacet
   facet normal 0.000000e+00 1.000000e+00 0.000000e+00
      outer loop
         vertex 9.806006e+01 1.500000e+00 2.334326e+02
         vertex 1.307823e+02 1.500000e+00 3.011682e+02
         vertex 1.319563e+02 1.500000e+00 2.999942e+02
      endloop
   endfacet
   facet normal 0.000000e+00 1.000000e+00 0.000000e+00
      outer loop
         vertex 1.348211e+02 1.500000e+00 2.983402e+02
         vertex 1.364249e+02 1.500000e+00 2.979105e+02
         vertex 9.806006e+01 1.500000e+00 2.334326e+02
      endloop
   endfacet
   facet normal 0.000000e+00 1.000000e+00 0.000000e+00
      outer loop
         vertex 9.806006e+01 1.500000e+00 2.334326e+02
         vertex 1.364249e+02 1.500000e+00 2.979105e+02
         vertex 1.380789e+02 1.500000e+00 2.977657e+02
      endloop
   endfacet
   facet normal 0.000000e+00 1.000000e+00 0.000000e+00
      outer loop
         vertex 9.806006e+01 1.500000e+00 2.334326e+02
         vertex 1.380789e+02 1.500000e+00 2.977657e+02
         vertex 1.397329e+02 1.500000e+00 2.979105e+02
      endloop
   endfacet
   facet normal -0.000000e+00 1.000000e+00 0.000000e+00
      outer loop
         vertex 1.397329e+02 1.500000e+00 2.979105e+02
         vertex 1.413366e+02 1.500000e+00 2.983402e+02
         vertex 9.806006e+01 1.500000e+00 2.334326e+02
      endloop
   endfacet
   facet normal 0.000000e+00 1.000000e+00 0.000000e+00
      outer loop
         vertex 9.806006e+01 1.500000e+00 2.334326e+02
         vertex 1.413366e+02 1.500000e+00 2.983402e+02
         vertex 1.428414e+02 1.500000e+00 2.990419e+02
      endloop
   endfacet
   facet normal 0.000000e+00 1.000000e+00 0.000000e+00
      outer loop
         vertex 9.806006e+01 1.500000e+00 2.334326e+02
         vertex 1.428414e+02 1.500000e+00 2.990419e+02
         vertex 2.836325e+02 1.500000e+00 3.202183e+02
      endloop
   endfacet
   facet normal 0.000000e+00 1.000000e+00 0.000000e+00
      outer loop
         vertex 2.836325e+02 1.500000e+00 3.202183e+02
         vertex 1.428414e+02 1.500000e+00 2.990419e+02
         vertex 1.442014e+02 1.500000e+00 2.999942e+02
      endloop
   endfacet
   facet normal 0.000000e+00 1.000000e+00 0.000000e+00
      outer loop
         vertex 2.836325e+02 1.500000e+00 3.202183e+02
         vertex 1.442014e+02 1.500000e+00 2.999942e+02
         vertex 1.453754e+02 1.500000e+00 3.011682e+02
      endloop
   endfacet
   facet normal 0.000000e+00 -1.000000e+00 0.000000e+00
      outer loop
         vertex 9.806006e+01 0.000000e+00 2.334326e+02
         vertex 9.806006e+01 0.000000e+00 1.747739e+02
         vertex 1.488601e+02 0.000000e+00 1.454445e+02
      endloop
   endfacet
   facet normal -0.000000e+00 -1.000000e+00 0.000000e+00
      outer loop
         vertex 1.286986e+02 0.000000e+00 3.056367e+02
         vertex 1.285539e+02 0.000000e+00 3.072907e+02
         vertex 0.000000e+00 0.000000e+00 2.888767e+02
      endloop
   endfacet
   facet normal 0.000000e+00 -1.000000e+00 0.000000e+00
      outer loop
         vertex 1.820325e+02 0.000000e+00 8.798818e+01
         vertex 1.820325e+02 0.000000e+00 2.932939e+01
         vertex 2.328325e+02 0.000000e+00 1.173176e+02
      endloop
   endfacet
   facet normal 0.000000e+00 -1.000000e+00 0.000000e+00
      outer loop
         vertex 1.820325e+02 0.000000e+00 2.932939e+01
         vertex 2.328325e+02 0.000000e+00 0.000000e+00
         vertex 2.328325e+02 0.000000e+00 1.173176e+02
      endloop
   endfacet
   facet normal 0.000000e+00 -1.000000e+00 0.000000e+00
      outer loop
         vertex 2.328325e+02 0.000000e+00 1.173176e+02
         vertex 2.328325e+02 0.000000e+00 0.000000e+00
         vertex 2.836325e+02 0.000000e+00 2.932939e+01
      endloop
   endfacet
   facet normal 0.000000e+00 -1.000000e+00 0.000000e+00
      outer loop
         vertex 2.328325e+02 0.000000e+00 1.173176e+02
         vertex 2.836325e+02 0.000000e+00 2.932939e+01
         vertex 2.836325e+02 0.000000e+00 8.798818e+01
      endloop
   endfacet
   facet normal 0.000000e+00 -1.000000e+00 -0.000000e+00
      outer loop
         vertex 1.286986e+02 0.000000e+00 3.056367e+02
         vertex 0.000000e+00 0.000000e+00 2.888767e+02
         vertex 1.291283e+02 0.000000e+00 3.040330e+02
      endloop
   endfacet
   facet normal 0.000000e+00 -1.000000e+00 0.000000e+00
      outer loop
         vertex 2.328325e+02 0.000000e+00 2.908889e+02
         vertex 2.836325e+02 0.000000e+00 3.202183e+02
         vertex 2.836325e+02 0.000000e+00 3.788771e+02
      endloop
   endfacet
   facet normal -0.000000e+00 -1.000000e+00 0.000000e+00
      outer loop
         vertex 2.328325e+02 0.000000e+00 1.173176e+02
         vertex 1.996601e+02 0.000000e+00 1.747739e+02
         vertex 1.820325e+02 0.000000e+00 8.798818e+01
      endloop
   endfacet
   facet normal 0.000000e+00 -1.000000e+00 0.000000e+00
      outer loop
         vertex 1.820325e+02 0.000000e+00 8.798818e+01
         vertex 1.996601e+02 0.000000e+00 1.747739e+02
         vertex 1.996601e+02 0.000000e+00 2.334326e+02
      endloop
   endfacet
   facet normal 0.000000e+00 -1.000000e+00 0.000000e+00
      outer loop
         vertex 1.820325e+02 0.000000e+00 8.798818e+01
         vertex 1.996601e+02 0.000000e+00 2.334326e+02
         vertex 1.820325e+02 0.000000e+00 3.788771e+02
      endloop
   endfacet
   facet normal 0.000000e+00 -1.000000e+00 0.000000e+00
      outer loop
         vertex 1.820325e+02 0.000000e+00 3.788771e+02
         vertex 1.996601e+02 0.000000e+00 2.334326e+02
         vertex 2.328325e+02 0.000000e+00 2.908889e+02
      endloop
   endfacet
   facet normal 0.000000e+00 -1.000000e+00 0.000000e+00
      outer loop
         vertex 1.820325e+02 0.000000e+00 3.788771e+02
         vertex 2.328325e+02 0.000000e+00 2.908889e+02
         vertex 2.328325e+02 0.000000e+00 4.082065e+02
      endloop
   endfacet
   facet normal 0.000000e+00 -1.000000e+00 0.000000e+00
      outer loop
         vertex 2.328325e+02 0.000000e+00 4.082065e+02
         vertex 2.328325e+02 0.000000e+00 2.908889e+02
         vertex 2.836325e+02 0.000000e+00 3.788771e+02
      endloop
   endfacet
   facet normal 0.000000e+00 -1.000000e+00 0.000000e+00
      outer loop
         vertex 9.806006e+01 0.000000e+00 2.334326e+02
         vertex 1.348211e+02 0.000000e+00 2.983402e+02
         vertex 1.333164e+02 0.000000e+00 2.990419e+02
      endloop
   endfacet
   facet normal 0.000000e+00 -1.000000e+00 0.000000e+00
      outer loop
         vertex 1.820325e+02 0.000000e+00 3.788771e+02
         vertex 1.476039e+02 0.000000e+00 3.072907e+02
         vertex 1.474592e+02 0.000000e+00 3.056367e+02
      endloop
   endfacet
   facet normal 0.000000e+00 -1.000000e+00 -0.000000e+00
      outer loop
         vertex 1.820325e+02 0.000000e+00 3.788771e+02
         vertex 1.474592e+02 0.000000e+00 3.056367e+02
         vertex 1.820325e+02 0.000000e+00 8.798818e+01
      endloop
   endfacet
   facet normal 0.000000e+00 -1.000000e+00 0.000000e+00
      outer loop
         vertex 1.820325e+02 0.000000e+00 8.798818e+01
         vertex 1.474592e+02 0.000000e+00 3.056367e+02
         vertex 1.470294e+02 0.000000e+00 3.040330e+02
      endloop
   endfacet
   facet normal 0.000000e+00 -1.000000e+00 0.000000e+00
      outer loop
         vertex 1.820325e+02 0.000000e+00 8.798818e+01
         vertex 1.470294e+02 0.000000e+00 3.040330e+02
         vertex 1.463277e+02 0.000000e+00 3.025282e+02
      endloop
   endfacet
   facet normal -0.000000e+00 -1.000000e+00 0.000000e+00
      outer loop
         vertex 1.333164e+02 0.000000e+00 2.990419e+02
         vertex 1.319563e+02 0.000000e+00 2.999942e+02
         vertex 9.806006e+01 0.000000e+00 2.334326e+02
      endloop
   endfacet
   facet normal 0.000000e+00 -1.000000e+00 0.000000e+00
      outer loop
         vertex 9.806006e+01 0.000000e+00 2.334326e+02
         vertex 1.319563e+02 0.000000e+00 2.999942e+02
         vertex 1.307823e+02 0.000000e+00 3.011682e+02
      endloop
   endfacet
   facet normal 0.000000e+00 -1.000000e+00 0.000000e+00
      outer loop
         vertex 9.806006e+01 0.000000e+00 2.334326e+02
         vertex 1.307823e+02 0.000000e+00 3.011682e+02
         vertex 0.000000e+00 0.000000e+00 2.888767e+02
      endloop
   endfacet
   facet normal 0.000000e+00 -1.000000e+00 0.000000e+00
      outer loop
         vertex 0.000000e+00 0.000000e+00 2.888767e+02
         vertex 1.307823e+02 0.000000e+00 3.011682e+02
         vertex 1.298300e+02 0.000000e+00 3.025282e+02
      endloop
   endfacet
   facet normal 0.000000e+00 -1.000000e+00 0.000000e+00
      outer loop
         vertex 0.000000e+00 0.000000e+00 2.888767e+02
         vertex 1.298300e+02 0.000000e+00 3.025282e+02
         vertex 1.291283e+02 0.000000e+00 3.040330e+02
      endloop
   endfacet
   facet normal -0.000000e+00 -1.000000e+00 0.000000e+00
      outer loop
         vertex 1.285539e+02 0.000000e+00 3.072907e+02
         vertex 1.286986e+02 0.000000e+00 3.089447e+02
         vertex 0.000000e+00 0.000000e+00 2.888767e+02
      endloop
   endfacet
   facet normal 0.000000e+00 -1.000000e+00 0.000000e+00
      outer loop
         vertex 0.000000e+00 0.000000e+00 2.888767e+02
         vertex 1.286986e+02 0.000000e+00 3.089447e+02
         vertex 1.291283e+02 0.000000e+00 3.105485e+02
      endloop
   endfacet
   facet normal 0.000000e+00 -1.000000e+00 0.000000e+00
      outer loop
         vertex 0.000000e+00 0.000000e+00 2.888767e+02
         vertex 1.291283e+02 0.000000e+00 3.105485e+02
         vertex 8.265631e+01 0.000000e+00 4.350652e+02
      endloop
   endfacet
   facet normal 0.000000e+00 -1.000000e+00 0.000000e+00
      outer loop
         vertex 8.265631e+01 0.000000e+00 4.350652e+02
         vertex 1.291283e+02 0.000000e+00 3.105485e+02
         vertex 1.298300e+02 0.000000e+00 3.120532e+02
      endloop
   endfacet
   facet normal 0.000000e+00 -1.000000e+00 0.000000e+00
      outer loop
         vertex 8.265631e+01 0.000000e+00 4.350652e+02
         vertex 1.298300e+02 0.000000e+00 3.120532e+02
         vertex 1.307823e+02 0.000000e+00 3.134133e+02
      endloop
   endfacet
   facet normal 0.000000e+00 -1.000000e+00 -0.000000e+00
      outer loop
         vertex 1.463277e+02 0.000000e+00 3.025282e+02
         vertex 1.453754e+02 0.000000e+00 3.011682e+02
         vertex 1.820325e+02 0.000000e+00 8.798818e+01
      endloop
   endfacet
   facet normal 0.000000e+00 -1.000000e+00 0.000000e+00
      outer loop
         vertex 1.820325e+02 0.000000e+00 8.798818e+01
         vertex 1.453754e+02 0.000000e+00 3.011682e+02
         vertex 1.442014e+02 0.000000e+00 2.999942e+02
      endloop
   endfacet
   facet normal 0.000000e+00 -1.000000e+00 0.000000e+00
      outer loop
         vertex 1.820325e+02 0.000000e+00 8.798818e+01
         vertex 1.442014e+02 0.000000e+00 2.999942e+02
         vertex 1.428414e+02 0.000000e+00 2.990419e+02
      endloop
   endfacet
   facet normal 0.000000e+00 -1.000000e+00 -0.000000e+00
      outer loop
         vertex 1.428414e+02 0.000000e+00 2.990419e+02
         vertex 1.413366e+02 0.000000e+00 2.983402e+02
         vertex 1.820325e+02 0.000000e+00 8.798818e+01
      endloop
   endfacet
   facet normal 0.000000e+00 -1.000000e+00 0.000000e+00
      outer loop
         vertex 1.820325e+02 0.000000e+00 8.798818e+01
         vertex 1.413366e+02 0.000000e+00 2.983402e+02
         vertex 1.397329e+02 0.000000e+00 2.979105e+02
      endloop
   endfacet
   facet normal 0.000000e+00 -1.000000e+00 0.000000e+00
      outer loop
         vertex 1.820325e+02 0.000000e+00 8.798818e+01
         vertex 1.397329e+02 0.000000e+00 2.979105e+02
         vertex 1.488601e+02 0.000000e+00 1.454445e+02
      endloop
   endfacet
   facet normal 0.000000e+00 -1.000000e+00 0.000000e+00
      outer loop
         vertex 1.488601e+02 0.000000e+00 1.454445e+02
         vertex 1.397329e+02 0.000000e+00 2.979105e+02
         vertex 1.380789e+02 0.000000e+00 2.977657e+02
      endloop
   endfacet
   facet normal 0.000000e+00 -1.000000e+00 0.000000e+00
      outer loop
         vertex 1.488601e+02 0.000000e+00 1.454445e+02
         vertex 1.380789e+02 0.000000e+00 2.977657e+02
         vertex 9.806006e+01 0.000000e+00 2.334326e+02
      endloop
   endfacet
   facet normal 0.000000e+00 -1.000000e+00 0.000000e+00
      outer loop
         vertex 9.806006e+01 0.000000e+00 2.334326e+02
         vertex 1.380789e+02 0.000000e+00 2.977657e+02
         vertex 1.364249e+02 0.000000e+00 2.979105e+02
      endloop
   endfacet
   facet normal 0.000000e+00 -1.000000e+00 0.000000e+00
      outer loop
         vertex 9.806006e+01 0.000000e+00 2.334326e+02
         vertex 1.364249e+02 0.000000e+00 2.979105e+02
         vertex 1.348211e+02 0.000000e+00 2.983402e+02
      endloop
   endfacet
   facet normal 0.000000e+00 -1.000000e+00 0.000000e+00
      outer loop
         vertex 1.307823e+02 0.000000e+00 3.134133e+02
         vertex 1.319563e+02 0.000000e+00 3.145873e+02
         vertex 8.265631e+01 0.000000e+00 4.350652e+02
      endloop
   endfacet
   facet normal 0.000000e+00 -1.000000e+00 0.000000e+00
      outer loop
         vertex 8.265631e+01 0.000000e+00 4.350652e+02
         vertex 1.319563e+02 0.000000e+00 3.145873e+02
         vertex 1.333164e+02 0.000000e+00 3.155396e+02
      endloop
   endfacet
   facet normal 0.000000e+00 -1.000000e+00 0.000000e+00
      outer loop
         vertex 8.265631e+01 0.000000e+00 4.350652e+02
         vertex 1.333164e+02 0.000000e+00 3.155396e+02
         vertex 1.348211e+02 0.000000e+00 3.162413e+02
      endloop
   endfacet
   facet normal 0.000000e+00 -1.000000e+00 0.000000e+00
      outer loop
         vertex 1.820325e+02 0.000000e+00 3.788771e+02
         vertex 1.413366e+02 0.000000e+00 3.162413e+02
         vertex 1.428414e+02 0.000000e+00 3.155396e+02
      endloop
   endfacet
   facet normal 0.000000e+00 -1.000000e+00 0.000000e+00
      outer loop
         vertex 1.463277e+02 0.000000e+00 3.120532e+02
         vertex 1.470294e+02 0.000000e+00 3.105485e+02
         vertex 1.820325e+02 0.000000e+00 3.788771e+02
      endloop
   endfacet
   facet normal 0.000000e+00 -1.000000e+00 0.000000e+00
      outer loop
         vertex 1.820325e+02 0.000000e+00 3.788771e+02
         vertex 1.470294e+02 0.000000e+00 3.105485e+02
         vertex 1.474592e+02 0.000000e+00 3.089447e+02
      endloop
   endfacet
   facet normal 0.000000e+00 -1.000000e+00 0.000000e+00
      outer loop
         vertex 1.820325e+02 0.000000e+00 3.788771e+02
         vertex 1.474592e+02 0.000000e+00 3.089447e+02
         vertex 1.476039e+02 0.000000e+00 3.072907e+02
      endloop
   endfacet
   facet normal 0.000000e+00 -1.000000e+00 0.000000e+00
      outer loop
         vertex 1.428414e+02 0.000000e+00 3.155396e+02
         vertex 1.442014e+02 0.000000e+00 3.145873e+02
         vertex 1.820325e+02 0.000000e+00 3.788771e+02
      endloop
   endfacet
   facet normal 0.000000e+00 -1.000000e+00 0.000000e+00
      outer loop
         vertex 1.820325e+02 0.000000e+00 3.788771e+02
         vertex 1.442014e+02 0.000000e+00 3.145873e+02
         vertex 1.453754e+02 0.000000e+00 3.134133e+02
      endloop
   endfacet
   facet normal 0.000000e+00 -1.000000e+00 0.000000e+00
      outer loop
         vertex 1.820325e+02 0.000000e+00 3.788771e+02
         vertex 1.453754e+02 0.000000e+00 3.134133e+02
         vertex 1.463277e+02 0.000000e+00 3.120532e+02
      endloop
   endfacet
   facet normal 0.000000e+00 -1.000000e+00 0.000000e+00
      outer loop
         vertex 1.348211e+02 0.000000e+00 3.162413e+02
         vertex 1.364249e+02 0.000000e+00 3.166710e+02
         vertex 8.265631e+01 0.000000e+00 4.350652e+02
      endloop
   endfacet
   facet normal 0.000000e+00 -1.000000e+00 0.000000e+00
      outer loop
         vertex 8.265631e+01 0.000000e+00 4.350652e+02
         vertex 1.364249e+02 0.000000e+00 3.166710e+02
         vertex 1.380789e+02 0.000000e+00 3.168157e+02
      endloop
   endfacet
   facet normal 0.000000e+00 -1.000000e+00 0.000000e+00
      outer loop
         vertex 8.265631e+01 0.000000e+00 4.350652e+02
         vertex 1.380789e+02 0.000000e+00 3.168157e+02
         vertex 1.820325e+02 0.000000e+00 3.788771e+02
      endloop
   endfacet
   facet normal 0.000000e+00 -1.000000e+00 0.000000e+00
      outer loop
         vertex 1.820325e+02 0.000000e+00 3.788771e+02
         vertex 1.380789e+02 0.000000e+00 3.168157e+02
         vertex 1.397329e+02 0.000000e+00 3.166710e+02
      endloop
   endfacet
   facet normal 0.000000e+00 -1.000000e+00 0.000000e+00
      outer loop
         vertex 1.820325e+02 0.000000e+00 3.788771e+02
         vertex 1.397329e+02 0.000000e+00 3.166710e+02
         vertex 1.413366e+02 0.000000e+00 3.162413e+02
      endloop
   endfacet
   facet normal -8.715515e-02 0.000000e+00 -9.961948e-01
      outer loop
         vertex 1.380789e+02 1.084202e-15 3.168157e+02
         vertex 1.380789e+02 1.500000e+00 3.168157e+02
         vertex 1.397329e+02 1.084202e-15 3.166710e+02
      endloop
   endfacet
   facet normal -8.715515e-02 0.000000e+00 -9.961948e-01
      outer loop
         vertex 1.397329e+02 1.084202e-15 3.166710e+02
         vertex 1.380789e+02 1.500000e+00 3.168157e+02
         vertex 1.397329e+02 1.500000e+00 3.166710e+02
      endloop
   endfacet
   facet normal -2.588230e-01 0.000000e+00 -9.659248e-01
      outer loop
         vertex 1.397329e+02 1.084202e-15 3.166710e+02
         vertex 1.397329e+02 1.500000e+00 3.166710e+02
         vertex 1.413366e+02 1.084202e-15 3.162413e+02
      endloop
   endfacet
   facet normal -2.588230e-01 0.000000e+00 -9.659248e-01
      outer loop
         vertex 1.413366e+02 1.084202e-15 3.162413e+02
         vertex 1.397329e+02 1.500000e+00 3.166710e+02
         vertex 1.413366e+02 1.500000e+00 3.162413e+02
      endloop
   endfacet
   facet normal -4.226172e-01 0.000000e+00 -9.063083e-01
      outer loop
         vertex 1.413366e+02 1.084202e-15 3.162413e+02
         vertex 1.413366e+02 1.500000e+00 3.162413e+02
         vertex 1.428414e+02 1.084202e-15 3.155396e+02
      endloop
   endfacet
   facet normal -4.226172e-01 0.000000e+00 -9.063083e-01
      outer loop
         vertex 1.428414e+02 1.084202e-15 3.155396e+02
         vertex 1.413366e+02 1.500000e+00 3.162413e+02
         vertex 1.428414e+02 1.500000e+00 3.155396e+02
      endloop
   endfacet
   facet normal -5.735786e-01 0.000000e+00 -8.191505e-01
      outer loop
         vertex 1.428414e+02 1.084202e-15 3.155396e+02
         vertex 1.428414e+02 1.500000e+00 3.155396e+02
         vertex 1.442014e+02 1.084202e-15 3.145873e+02
      endloop
   endfacet
   facet normal -5.735786e-01 0.000000e+00 -8.191505e-01
      outer loop
         vertex 1.442014e+02 1.084202e-15 3.145873e+02
         vertex 1.428414e+02 1.500000e+00 3.155396e+02
         vertex 1.442014e+02 1.500000e+00 3.145873e+02
      endloop
   endfacet
   facet normal -7.071068e-01 0.000000e+00 -7.071068e-01
      outer loop
         vertex 1.442014e+02 1.084202e-15 3.145873e+02
         vertex 1.442014e+02 1.500000e+00 3.145873e+02
         vertex 1.453754e+02 1.084202e-15 3.134133e+02
      endloop
   endfacet
   facet normal -7.071068e-01 0.000000e+00 -7.071068e-01
      outer loop
         vertex 1.453754e+02 1.084202e-15 3.134133e+02
         vertex 1.442014e+02 1.500000e+00 3.145873e+02
         vertex 1.453754e+02 1.500000e+00 3.134133e+02
      endloop
   endfacet
   facet normal -8.191520e-01 0.000000e+00 -5.735765e-01
      outer loop
         vertex 1.453754e+02 1.084202e-15 3.134133e+02
         vertex 1.453754e+02 1.500000e+00 3.134133e+02
         vertex 1.463277e+02 1.084202e-15 3.120532e+02
      endloop
   endfacet
   facet normal -8.191520e-01 0.000000e+00 -5.735765e-01
      outer loop
         vertex 1.463277e+02 1.084202e-15 3.120532e+02
         vertex 1.453754e+02 1.500000e+00 3.134133e+02
         vertex 1.463277e+02 1.500000e+00 3.120532e+02
      endloop
   endfacet
   facet normal -9.063075e-01 0.000000e+00 -4.226189e-01
      outer loop
         vertex 1.463277e+02 1.084202e-15 3.120532e+02
         vertex 1.463277e+02 1.500000e+00 3.120532e+02
         vertex 1.470294e+02 1.084202e-15 3.105485e+02
      endloop
   endfacet
   facet normal -9.063075e-01 0.000000e+00 -4.226189e-01
      outer loop
         vertex 1.470294e+02 1.084202e-15 3.105485e+02
         vertex 1.463277e+02 1.500000e+00 3.120532e+02
         vertex 1.470294e+02 1.500000e+00 3.105485e+02
      endloop
   endfacet
   facet normal -9.659240e-01 0.000000e+00 -2.588260e-01
      outer loop
         vertex 1.470294e+02 1.084202e-15 3.105485e+02
         vertex 1.470294e+02 1.500000e+00 3.105485e+02
         vertex 1.474592e+02 1.084202e-15 3.089447e+02
      endloop
   endfacet
   facet normal -9.659240e-01 0.000000e+00 -2.588260e-01
      outer loop
         vertex 1.474592e+02 1.084202e-15 3.089447e+02
         vertex 1.470294e+02 1.500000e+00 3.105485e+02
         vertex 1.474592e+02 1.500000e+00 3.089447e+02
      endloop
   endfacet
   facet normal -9.961948e-01 0.000000e+00 -8.715515e-02
      outer loop
         vertex 1.474592e+02 1.084202e-15 3.089447e+02
         vertex 1.474592e+02 1.500000e+00 3.089447e+02
         vertex 1.476039e+02 1.084202e-15 3.072907e+02
      endloop
   endfacet
   facet normal -9.961948e-01 0.000000e+00 -8.715515e-02
      outer loop
         vertex 1.476039e+02 1.084202e-15 3.072907e+02
         vertex 1.474592e+02 1.500000e+00 3.089447e+02
         vertex 1.476039e+02 1.500000e+00 3.072907e+02
      endloop
   endfacet
   facet normal -9.961948e-01 0.000000e+00 8.715515e-02
      outer loop
         vertex 1.476039e+02 1.084202e-15 3.072907e+02
         vertex 1.476039e+02 1.500000e+00 3.072907e+02
         vertex 1.474592e+02 1.084202e-15 3.056367e+02
      endloop
   endfacet
   facet normal -9.961948e-01 0.000000e+00 8.715515e-02
      outer loop
         vertex 1.474592e+02 1.084202e-15 3.056367e+02
         vertex 1.476039e+02 1.500000e+00 3.072907e+02
         vertex 1.474592e+02 1.500000e+00 3.056367e+02
      endloop
   endfacet
   facet normal -9.659240e-01 0.000000e+00 2.588260e-01
      outer loop
         vertex 1.474592e+02 1.084202e-15 3.056367e+02
         vertex 1.474592e+02 1.500000e+00 3.056367e+02
         vertex 1.470294e+02 1.084202e-15 3.040330e+02
      endloop
   endfacet
   facet normal -9.659240e-01 0.000000e+00 2.588260e-01
      outer loop
         vertex 1.470294e+02 1.084202e-15 3.040330e+02
         vertex 1.474592e+02 1.500000e+00 3.056367e+02
         vertex 1.470294e+02 1.500000e+00 3.040330e+02
      endloop
   endfacet
   facet normal -9.063075e-01 0.000000e+00 4.226189e-01
      outer loop
         vertex 1.470294e+02 1.084202e-15 3.040330e+02
         vertex 1.470294e+02 1.500000e+00 3.040330e+02
         vertex 1.463277e+02 1.084202e-15 3.025282e+02
      endloop
   endfacet
   facet normal -9.063075e-01 0.000000e+00 4.226189e-01
      outer loop
         vertex 1.463277e+02 1.084202e-15 3.025282e+02
         vertex 1.470294e+02 1.500000e+00 3.040330e+02
         vertex 1.463277e+02 1.500000e+00 3.025282e+02
      endloop
   endfacet
   facet normal -8.191520e-01 0.000000e+00 5.735765e-01
      outer loop
         vertex 1.463277e+02 1.084202e-15 3.025282e+02
         vertex 1.463277e+02 1.500000e+00 3.025282e+02
         vertex 1.453754e+02 1.084202e-15 3.011682e+02
      endloop
   endfacet
   facet normal -8.191520e-01 0.000000e+00 5.735765e-01
      outer loop
         vertex 1.453754e+02 1.084202e-15 3.011682e+02
         vertex 1.463277e+02 1.500000e+00 3.025282e+02
         vertex 1.453754e+02 1.500000e+00 3.011682e+02
      endloop
   endfacet
   facet normal -7.071090e-01 0.000000e+00 7.071045e-01
      outer loop
         vertex 1.453754e+02 1.084202e-15 3.011682e+02
         vertex 1.453754e+02 1.500000e+00 3.011682e+02
         vertex 1.442014e+02 1.084202e-15 2.999942e+02
      endloop
   endfacet
   facet normal -7.071090e-01 0.000000e+00 7.071045e-01
      outer loop
         vertex 1.442014e+02 1.084202e-15 2.999942e+02
         vertex 1.453754e+02 1.500000e+00 3.011682e+02
         vertex 1.442014e+02 1.500000e+00 2.999942e+02
      endloop
   endfacet
   facet normal -5.735786e-01 0.000000e+00 8.191505e-01
      outer loop
         vertex 1.442014e+02 1.084202e-15 2.999942e+02
         vertex 1.442014e+02 1.500000e+00 2.999942e+02
         vertex 1.428414e+02 1.084202e-15 2.990419e+02
      endloop
   endfacet
   facet normal -5.735786e-01 0.000000e+00 8.191505e-01
      outer loop
         vertex 1.428414e+02 1.084202e-15 2.990419e+02
         vertex 1.442014e+02 1.500000e+00 2.999942e+02
         vertex 1.428414e+02 1.500000e+00 2.990419e+02
      endloop
   endfacet
   facet normal -4.226172e-01 0.000000e+00 9.063083e-01
      outer loop
         vertex 1.428414e+02 1.084202e-15 2.990419e+02
         vertex 1.428414e+02 1.500000e+00 2.990419e+02
         vertex 1.413366e+02 1.084202e-15 2.983402e+02
      endloop
   endfacet
   facet normal -4.226172e-01 0.000000e+00 9.063083e-01
      outer loop
         vertex 1.413366e+02 1.084202e-15 2.983402e+02
         vertex 1.428414e+02 1.500000e+00 2.990419e+02
         vertex 1.413366e+02 1.500000e+00 2.983402e+02
      endloop
   endfacet
   facet normal -2.588188e-01 0.000000e+00 9.659259e-01
      outer loop
         vertex 1.413366e+02 1.084202e-15 2.983402e+02
         vertex 1.413366e+02 1.500000e+00 2.983402e+02
         vertex 1.397329e+02 1.084202e-15 2.979105e+02
      endloop
   endfacet
   facet normal -2.588188e-01 0.000000e+00 9.659259e-01
      outer loop
         vertex 1.397329e+02 1.084202e-15 2.979105e+02
         vertex 1.413366e+02 1.500000e+00 2.983402e+02
         vertex 1.397329e+02 1.500000e+00 2.979105e+02
      endloop
   endfacet
   facet normal -8.715515e-02 0.000000e+00 9.961948e-01
      outer loop
         vertex 1.397329e+02 1.084202e-15 2.979105e+02
         vertex 1.397329e+02 1.500000e+00 2.979105e+02
         vertex 1.380789e+02 1.084202e-15 2.977657e+02
      endloop
   endfacet
   facet normal -8.715515e-02 0.000000e+00 9.961948e-01
      outer loop
         vertex 1.380789e+02 1.084202e-15 2.977657e+02
         vertex 1.397329e+02 1.500000e+00 2.979105e+02
         vertex 1.380789e+02 1.500000e+00 2.977657e+02
      endloop
   endfacet
   facet normal 8.715515e-02 -0.000000e+00 9.961948e-01
      outer loop
         vertex 1.380789e+02 1.084202e-15 2.977657e+02
         vertex 1.380789e+02 1.500000e+00 2.977657e+02
         vertex 1.364249e+02 1.084202e-15 2.979105e+02
      endloop
   endfacet
   facet normal 8.715515e-02 -0.000000e+00 9.961948e-01
      outer loop
         vertex 1.364249e+02 1.084202e-15 2.979105e+02
         vertex 1.380789e+02 1.500000e+00 2.977657e+02
         vertex 1.364249e+02 1.500000e+00 2.979105e+02
      endloop
   endfacet
   facet normal 2.588165e-01 -0.000000e+00 9.659265e-01
      outer loop
         vertex 1.364249e+02 1.084202e-15 2.979105e+02
         vertex 1.364249e+02 1.500000e+00 2.979105e+02
         vertex 1.348211e+02 1.084202e-15 2.983402e+02
      endloop
   endfacet
   facet normal 2.588165e-01 -0.000000e+00 9.659265e-01
      outer loop
         vertex 1.348211e+02 1.084202e-15 2.983402e+02
         vertex 1.364249e+02 1.500000e+00 2.979105e+02
         vertex 1.348211e+02 1.500000e+00 2.983402e+02
      endloop
   endfacet
   facet normal 4.226206e-01 -0.000000e+00 9.063067e-01
      outer loop
         vertex 1.348211e+02 1.084202e-15 2.983402e+02
         vertex 1.348211e+02 1.500000e+00 2.983402e+02
         vertex 1.333164e+02 1.084202e-15 2.990419e+02
      endloop
   endfacet
   facet normal 4.226206e-01 -0.000000e+00 9.063067e-01
      outer loop
         vertex 1.333164e+02 1.084202e-15 2.990419e+02
         vertex 1.348211e+02 1.500000e+00 2.983402e+02
         vertex 1.333164e+02 1.500000e+00 2.990419e+02
      endloop
   endfacet
   facet normal 5.735744e-01 -0.000000e+00 8.191535e-01
      outer loop
         vertex 1.333164e+02 1.084202e-15 2.990419e+02
         vertex 1.333164e+02 1.500000e+00 2.990419e+02
         vertex 1.319563e+02 1.084202e-15 2.999942e+02
      endloop
   endfacet
   facet normal 5.735744e-01 -0.000000e+00 8.191535e-01
      outer loop
         vertex 1.319563e+02 1.084202e-15 2.999942e+02
         vertex 1.333164e+02 1.500000e+00 2.990419e+02
         vertex 1.319563e+02 1.500000e+00 2.999942e+02
      endloop
   endfacet
   facet normal 7.071090e-01 -0.000000e+00 7.071045e-01
      outer loop
         vertex 1.319563e+02 1.084202e-15 2.999942e+02
         vertex 1.319563e+02 1.500000e+00 2.999942e+02
         vertex 1.307823e+02 1.084202e-15 3.011682e+02
      endloop
   endfacet
   facet normal 7.071090e-01 -0.000000e+00 7.071045e-01
      outer loop
         vertex 1.307823e+02 1.084202e-15 3.011682e+02
         vertex 1.319563e+02 1.500000e+00 2.999942e+02
         vertex 1.307823e+02 1.500000e+00 3.011682e+02
      endloop
   endfacet
   facet normal 8.191520e-01 -0.000000e+00 5.735765e-01
      outer loop
         vertex 1.307823e+02 1.084202e-15 3.011682e+02
         vertex 1.307823e+02 1.500000e+00 3.011682e+02
         vertex 1.298300e+02 1.084202e-15 3.025282e+02
      endloop
   endfacet
   facet normal 8.191520e-01 -0.000000e+00 5.735765e-01
      outer loop
         vertex 1.298300e+02 1.084202e-15 3.025282e+02
         vertex 1.307823e+02 1.500000e+00 3.011682e+02
         vertex 1.298300e+02 1.500000e+00 3.025282e+02
      endloop
   endfacet
   facet normal 9.063075e-01 -0.000000e+00 4.226189e-01
      outer loop
         vertex 1.298300e+02 1.084202e-15 3.025282e+02
         vertex 1.298300e+02 1.500000e+00 3.025282e+02
         vertex 1.291283e+02 1.084202e-15 3.040330e+02
      endloop
   endfacet
   facet normal 9.063075e-01 -0.000000e+00 4.226189e-01
      outer loop
         vertex 1.291283e+02 1.084202e-15 3.040330e+02
         vertex 1.298300e+02 1.500000e+00 3.025282e+02
         vertex 1.291283e+02 1.500000e+00 3.040330e+02
      endloop
   endfacet
   facet normal 9.659262e-01 -0.000000e+00 2.588177e-01
      outer loop
         vertex 1.291283e+02 1.084202e-15 3.040330e+02
         vertex 1.291283e+02 1.500000e+00 3.040330e+02
         vertex 1.286986e+02 1.084202e-15 3.056367e+02
      endloop
   endfacet
   facet normal 9.659262e-01 -0.000000e+00 2.588177e-01
      outer loop
         vertex 1.286986e+02 1.084202e-15 3.056367e+02
         vertex 1.291283e+02 1.500000e+00 3.040330e+02
         vertex 1.286986e+02 1.500000e+00 3.056367e+02
      endloop
   endfacet
   facet normal 9.961948e-01 -0.000000e+00 8.715515e-02
      outer loop
         vertex 1.286986e+02 1.084202e-15 3.056367e+02
         vertex 1.286986e+02 1.500000e+00 3.056367e+02
         vertex 1.285539e+02 1.084202e-15 3.072907e+02
      endloop
   endfacet
   facet normal 9.961948e-01 -0.000000e+00 8.715515e-02
      outer loop
         vertex 1.285539e+02 1.084202e-15 3.072907e+02
         vertex 1.286986e+02 1.500000e+00 3.056367e+02
         vertex 1.285539e+02 1.500000e+00 3.072907e+02
      endloop
   endfacet
   facet normal 9.961948e-01 0.000000e+00 -8.715515e-02
      outer loop
         vertex 1.285539e+02 1.084202e-15 3.072907e+02
         vertex 1.285539e+02 1.500000e+00 3.072907e+02
         vertex 1.286986e+02 1.084202e-15 3.089447e+02
      endloop
   endfacet
   facet normal 9.961948e-01 0.000000e+00 -8.715515e-02
      outer loop
         vertex 1.286986e+02 1.084202e-15 3.089447e+02
         vertex 1.285539e+02 1.500000e+00 3.072907e+02
         vertex 1.286986e+02 1.500000e+00 3.089447e+02
      endloop
   endfacet
   facet normal 9.659262e-01 0.000000e+00 -2.588177e-01
      outer loop
         vertex 1.286986e+02 1.084202e-15 3.089447e+02
         vertex 1.286986e+02 1.500000e+00 3.089447e+02
         vertex 1.291283e+02 1.084202e-15 3.105485e+02
      endloop
   endfacet
   facet normal 9.659262e-01 0.000000e+00 -2.588177e-01
      outer loop
         vertex 1.291283e+02 1.084202e-15 3.105485e+02
         vertex 1.286986e+02 1.500000e+00 3.089447e+02
         vertex 1.291283e+02 1.500000e+00 3.105485e+02
      endloop
   endfacet
   facet normal 9.063075e-01 0.000000e+00 -4.226189e-01
      outer loop
         vertex 1.291283e+02 1.084202e-15 3.105485e+02
         vertex 1.291283e+02 1.500000e+00 3.105485e+02
         vertex 1.298300e+02 1.084202e-15 3.120532e+02
      endloop
   endfacet
   facet normal 9.063075e-01 0.000000e+00 -4.226189e-01
      outer loop
         vertex 1.298300e+02 1.084202e-15 3.120532e+02
         vertex 1.291283e+02 1.500000e+00 3.105485e+02
         vertex 1.298300e+02 1.500000e+00 3.120532e+02
      endloop
   endfacet
   facet normal 8.191520e-01 0.000000e+00 -5.735765e-01
      outer loop
         vertex 1.298300e+02 1.084202e-15 3.120532e+02
         vertex 1.298300e+02 1.500000e+00 3.120532e+02
         vertex 1.307823e+02 1.084202e-15 3.134133e+02
      endloop
   endfacet
   facet normal 8.191520e-01 0.000000e+00 -5.735765e-01
      outer loop
         vertex 1.307823e+02 1.084202e-15 3.134133e+02
         vertex 1.298300e+02 1.500000e+00 3.120532e+02
         vertex 1.307823e+02 1.500000e+00 3.134133e+02
      endloop
   endfacet
   facet normal 7.071068e-01 0.000000e+00 -7.071068e-01
      outer loop
         vertex 1.307823e+02 1.084202e-15 3.134133e+02
         vertex 1.307823e+02 1.500000e+00 3.134133e+02
         vertex 1.319563e+02 1.084202e-15 3.145873e+02
      endloop
   endfacet
   facet normal 7.071068e-01 0.000000e+00 -7.071068e-01
      outer loop
         vertex 1.319563e+02 1.084202e-15 3.145873e+02
         vertex 1.307823e+02 1.500000e+00 3.134133e+02
         vertex 1.319563e+02 1.500000e+00 3.145873e+02
      endloop
   endfacet
   facet normal 5.735744e-01 0.000000e+00 -8.191535e-01
      outer loop
         vertex 1.319563e+02 1.084202e-15 3.145873e+02
         vertex 1.319563e+02 1.500000e+00 3.145873e+02
         vertex 1.333164e+02 1.084202e-15 3.155396e+02
      endloop
   endfacet
   facet normal 5.735744e-01 0.000000e+00 -8.191535e-01
      outer loop
         vertex 1.333164e+02 1.084202e-15 3.155396e+02
         vertex 1.319563e+02 1.500000e+00 3.145873e+02
         vertex 1.333164e+02 1.500000e+00 3.155396e+02
      endloop
   endfacet
   facet normal 4.226206e-01 0.000000e+00 -9.063067e-01
      outer loop
         vertex 1.333164e+02 1.084202e-15 3.155396e+02
         vertex 1.333164e+02 1.500000e+00 3.155396e+02
         vertex 1.348211e+02 1.084202e-15 3.162413e+02
      endloop
   endfacet
   facet normal 4.226206e-01 0.000000e+00 -9.063067e-01
      outer loop
         vertex 1.348211e+02 1.084202e-15 3.162413e+02
         vertex 1.333164e+02 1.500000e+00 3.155396e+02
         vertex 1.348211e+02 1.500000e+00 3.162413e+02
      endloop
   endfacet
   facet normal 2.588207e-01 0.000000e+00 -9.659254e-01
      outer loop
         vertex 1.348211e+02 1.084202e-15 3.162413e+02
         vertex 1.348211e+02 1.500000e+00 3.162413e+02
         vertex 1.364249e+02 1.084202e-15 3.166710e+02
      endloop
   endfacet
   facet normal 2.588207e-01 0.000000e+00 -9.659254e-01
      outer loop
         vertex 1.364249e+02 1.084202e-15 3.166710e+02
         vertex 1.348211e+02 1.500000e+00 3.162413e+02
         vertex 1.364249e+02 1.500000e+00 3.166710e+02
      endloop
   endfacet
   facet normal 8.715515e-02 0.000000e+00 -9.961948e-01
      outer loop
         vertex 1.364249e+02 1.084202e-15 3.166710e+02
         vertex 1.364249e+02 1.500000e+00 3.166710e+02
         vertex 1.380789e+02 1.084202e-15 3.168157e+02
      endloop
   endfacet
   facet normal 8.715515e-02 0.000000e+00 -9.961948e-01
      outer loop
         vertex 1.380789e+02 1.084202e-15 3.168157e+02
         vertex 1.364249e+02 1.500000e+00 3.166710e+02
         vertex 1.380789e+02 1.500000e+00 3.168157e+02
      endloop
   endfacet
endsolid