solid Side Motherboard 5 Assembly
   facet normal 4.921835e-01 0.000000e+00 8.704915e-01
      outer loop
         vertex 1.970682e+02 8.166000e+00 3.809181e+02
         vertex 9.769203e+01 8.166000e+00 4.371063e+02
         vertex 1.970682e+02 6.666000e+00 3.809181e+02
      endloop
   endfacet
   facet normal 4.921835e-01 0.000000e+00 8.704915e-01
      outer loop
         vertex 1.970682e+02 6.666000e+00 3.809181e+02
         vertex 9.769203e+01 8.166000e+00 4.371063e+02
         vertex 9.769203e+01 6.666000e+00 4.371063e+02
      endloop
   endfacet
   facet normal -4.999999e-01 0.000000e+00 8.660254e-01
      outer loop
         vertex 2.478682e+02 8.166000e+00 4.102475e+02
         vertex 1.970682e+02 8.166000e+00 3.809181e+02
         vertex 2.478682e+02 6.666000e+00 4.102475e+02
      endloop
   endfacet
   facet normal -4.999999e-01 0.000000e+00 8.660254e-01
      outer loop
         vertex 2.478682e+02 6.666000e+00 4.102475e+02
         vertex 1.970682e+02 8.166000e+00 3.809181e+02
         vertex 1.970682e+02 6.666000e+00 3.809181e+02
      endloop
   endfacet
   facet normal 4.999999e-01 0.000000e+00 8.660254e-01
      outer loop
         vertex 2.986682e+02 8.166000e+00 3.809181e+02
         vertex 2.478682e+02 8.166000e+00 4.102475e+02
         vertex 2.986682e+02 6.666000e+00 3.809181e+02
      endloop
   endfacet
   facet normal 4.999999e-01 0.000000e+00 8.660254e-01
      outer loop
         vertex 2.986682e+02 6.666000e+00 3.809181e+02
         vertex 2.478682e+02 8.166000e+00 4.102475e+02
         vertex 2.478682e+02 6.666000e+00 4.102475e+02
      endloop
   endfacet
   facet normal 1.000000e+00 0.000000e+00 -0.000000e+00
      outer loop
         vertex 2.986682e+02 8.166000e+00 3.222594e+02
         vertex 2.986682e+02 8.166000e+00 3.809181e+02
         vertex 2.986682e+02 6.666000e+00 3.222594e+02
      endloop
   endfacet
   facet normal 1.000000e+00 0.000000e+00 0.000000e+00
      outer loop
         vertex 2.986682e+02 6.666000e+00 3.222594e+02
         vertex 2.986682e+02 8.166000e+00 3.809181e+02
         vertex 2.986682e+02 6.666000e+00 3.809181e+02
      endloop
   endfacet
   facet normal 5.000000e-01 0.000000e+00 -8.660254e-01
      outer loop
         vertex 2.478682e+02 8.166000e+00 2.929300e+02
         vertex 2.986682e+02 8.166000e+00 3.222594e+02
         vertex 2.478682e+02 6.666000e+00 2.929300e+02
      endloop
   endfacet
   facet normal 5.000000e-01 0.000000e+00 -8.660254e-01
      outer loop
         vertex 2.478682e+02 6.666000e+00 2.929300e+02
         vertex 2.986682e+02 8.166000e+00 3.222594e+02
         vertex 2.986682e+02 6.666000e+00 3.222594e+02
      endloop
   endfacet
   facet normal 8.660254e-01 0.000000e+00 -5.000000e-01
      outer loop
         vertex 2.146958e+02 8.166000e+00 2.354737e+02
         vertex 2.478682e+02 8.166000e+00 2.929300e+02
         vertex 2.146958e+02 6.666000e+00 2.354737e+02
      endloop
   endfacet
   facet normal 8.660254e-01 0.000000e+00 -5.000000e-01
      outer loop
         vertex 2.146958e+02 6.666000e+00 2.354737e+02
         vertex 2.478682e+02 8.166000e+00 2.929300e+02
         vertex 2.478682e+02 6.666000e+00 2.929300e+02
      endloop
   endfacet
   facet normal 1.000000e+00 0.000000e+00 -0.000000e+00
      outer loop
         vertex 2.146958e+02 8.166000e+00 1.768149e+02
         vertex 2.146958e+02 8.166000e+00 2.354737e+02
         vertex 2.146958e+02 6.666000e+00 1.768149e+02
      endloop
   endfacet
   facet normal 1.000000e+00 0.000000e+00 0.000000e+00
      outer loop
         vertex 2.146958e+02 6.666000e+00 1.768149e+02
         vertex 2.146958e+02 8.166000e+00 2.354737e+02
         vertex 2.146958e+02 6.666000e+00 2.354737e+02
      endloop
   endfacet
   facet normal 8.660254e-01 0.000000e+00 5.000000e-01
      outer loop
         vertex 2.478682e+02 8.166000e+00 1.193586e+02
         vertex 2.146958e+02 8.166000e+00 1.768149e+02
         vertex 2.478682e+02 6.666000e+00 1.193586e+02
      endloop
   endfacet
   facet normal 8.660254e-01 0.000000e+00 5.000000e-01
      outer loop
         vertex 2.478682e+02 6.666000e+00 1.193586e+02
         vertex 2.146958e+02 8.166000e+00 1.768149e+02
         vertex 2.146958e+02 6.666000e+00 1.768149e+02
      endloop
   endfacet
   facet normal 5.000000e-01 0.000000e+00 8.660254e-01
      outer loop
         vertex 2.986682e+02 8.166000e+00 9.002922e+01
         vertex 2.478682e+02 8.166000e+00 1.193586e+02
         vertex 2.986682e+02 6.666000e+00 9.002922e+01
      endloop
   endfacet
   facet normal 5.000000e-01 0.000000e+00 8.660254e-01
      outer loop
         vertex 2.986682e+02 6.666000e+00 9.002922e+01
         vertex 2.478682e+02 8.166000e+00 1.193586e+02
         vertex 2.478682e+02 6.666000e+00 1.193586e+02
      endloop
   endfacet
   facet normal 1.000000e+00 0.000000e+00 -0.000000e+00
      outer loop
         vertex 2.986682e+02 8.166000e+00 3.137043e+01
         vertex 2.986682e+02 8.166000e+00 9.002922e+01
         vertex 2.986682e+02 6.666000e+00 3.137043e+01
      endloop
   endfacet
   facet normal 1.000000e+00 0.000000e+00 0.000000e+00
      outer loop
         vertex 2.986682e+02 6.666000e+00 3.137043e+01
         vertex 2.986682e+02 8.166000e+00 9.002922e+01
         vertex 2.986682e+02 6.666000e+00 9.002922e+01
      endloop
   endfacet
   facet normal 4.999999e-01 0.000000e+00 -8.660254e-01
      outer loop
         vertex 2.478682e+02 8.166000e+00 2.041042e+00
         vertex 2.986682e+02 8.166000e+00 3.137043e+01
         vertex 2.478682e+02 6.666000e+00 2.041042e+00
      endloop
   endfacet
   facet normal 4.999999e-01 0.000000e+00 -8.660254e-01
      outer loop
         vertex 2.478682e+02 6.666000e+00 2.041042e+00
         vertex 2.986682e+02 8.166000e+00 3.137043e+01
         vertex 2.986682e+02 6.666000e+00 3.137043e+01
      endloop
   endfacet
   facet normal -4.999999e-01 -0.000000e+00 -8.660254e-01
      outer loop
         vertex 1.970682e+02 8.166000e+00 3.137043e+01
         vertex 2.478682e+02 8.166000e+00 2.041042e+00
         vertex 1.970682e+02 6.666000e+00 3.137043e+01
      endloop
   endfacet
   facet normal -4.999999e-01 0.000000e+00 -8.660254e-01
      outer loop
         vertex 1.970682e+02 6.666000e+00 3.137043e+01
         vertex 2.478682e+02 8.166000e+00 2.041042e+00
         vertex 2.478682e+02 6.666000e+00 2.041042e+00
      endloop
   endfacet
   facet normal -1.000000e+00 -0.000000e+00 -0.000000e+00
      outer loop
         vertex 1.970682e+02 8.166000e+00 9.002922e+01
         vertex 1.970682e+02 8.166000e+00 3.137043e+01
         vertex 1.970682e+02 6.666000e+00 9.002922e+01
      endloop
   endfacet
   facet normal -1.000000e+00 0.000000e+00 0.000000e+00
      outer loop
         vertex 1.970682e+02 6.666000e+00 9.002922e+01
         vertex 1.970682e+02 8.166000e+00 3.137043e+01
         vertex 1.970682e+02 6.666000e+00 3.137043e+01
      endloop
   endfacet
   facet normal -8.660254e-01 -0.000000e+00 -5.000000e-01
      outer loop
         vertex 1.638958e+02 8.166000e+00 1.474855e+02
         vertex 1.970682e+02 8.166000e+00 9.002922e+01
         vertex 1.638958e+02 6.666000e+00 1.474855e+02
      endloop
   endfacet
   facet normal -8.660254e-01 0.000000e+00 -5.000000e-01
      outer loop
         vertex 1.638958e+02 6.666000e+00 1.474855e+02
         vertex 1.970682e+02 8.166000e+00 9.002922e+01
         vertex 1.970682e+02 6.666000e+00 9.002922e+01
      endloop
   endfacet
   facet normal -5.000000e-01 -0.000000e+00 -8.660254e-01
      outer loop
         vertex 1.130958e+02 8.166000e+00 1.768149e+02
         vertex 1.638958e+02 8.166000e+00 1.474855e+02
         vertex 1.130958e+02 6.666000e+00 1.768149e+02
      endloop
   endfacet
   facet normal -5.000000e-01 0.000000e+00 -8.660254e-01
      outer loop
         vertex 1.130958e+02 6.666000e+00 1.768149e+02
         vertex 1.638958e+02 8.166000e+00 1.474855e+02
         vertex 1.638958e+02 6.666000e+00 1.474855e+02
      endloop
   endfacet
   facet normal -1.000000e+00 -0.000000e+00 -0.000000e+00
      outer loop
         vertex 1.130958e+02 8.166000e+00 2.354737e+02
         vertex 1.130958e+02 8.166000e+00 1.768149e+02
         vertex 1.130958e+02 6.666000e+00 2.354737e+02
      endloop
   endfacet
   facet normal -1.000000e+00 0.000000e+00 0.000000e+00
      outer loop
         vertex 1.130958e+02 6.666000e+00 2.354737e+02
         vertex 1.130958e+02 8.166000e+00 1.768149e+02
         vertex 1.130958e+02 6.666000e+00 1.768149e+02
      endloop
   endfacet
   facet normal -4.921835e-01 -0.000000e+00 -8.704915e-01
      outer loop
         vertex 1.503572e+01 8.166000e+00 2.909177e+02
         vertex 1.130958e+02 8.166000e+00 2.354737e+02
         vertex 1.503572e+01 6.666000e+00 2.909177e+02
      endloop
   endfacet
   facet normal -4.921835e-01 0.000000e+00 -8.704915e-01
      outer loop
         vertex 1.503572e+01 6.666000e+00 2.909177e+02
         vertex 1.130958e+02 8.166000e+00 2.354737e+02
         vertex 1.130958e+02 6.666000e+00 2.354737e+02
      endloop
   endfacet
   facet normal -8.704915e-01 0.000000e+00 4.921835e-01
      outer loop
         vertex 9.769203e+01 8.166000e+00 4.371063e+02
         vertex 1.503572e+01 8.166000e+00 2.909177e+02
         vertex 9.769203e+01 6.666000e+00 4.371063e+02
      endloop
   endfacet
   facet normal -8.704915e-01 0.000000e+00 4.921835e-01
      outer loop
         vertex 9.769203e+01 6.666000e+00 4.371063e+02
         vertex 1.503572e+01 8.166000e+00 2.909177e+02
         vertex 1.503572e+01 6.666000e+00 2.909177e+02
      endloop
   endfacet
   facet normal 0.000000e+00 1.000000e+00 0.000000e+00
      outer loop
         vertex 2.986682e+02 8.166000e+00 3.137043e+01
         vertex 2.478682e+02 8.166000e+00 2.041042e+00
         vertex 1.970682e+02 8.166000e+00 3.137043e+01
      endloop
   endfacet
   facet normal 0.000000e+00 1.000000e+00 0.000000e+00
      outer loop
         vertex 2.478682e+02 8.166000e+00 1.193586e+02
         vertex 2.986682e+02 8.166000e+00 9.002922e+01
         vertex 2.986682e+02 8.166000e+00 3.137043e+01
      endloop
   endfacet
   facet normal -0.000000e+00 1.000000e+00 0.000000e+00
      outer loop
         vertex 1.626396e+02 8.166000e+00 3.093318e+02
         vertex 1.970682e+02 8.166000e+00 3.809181e+02
         vertex 1.624949e+02 8.166000e+00 3.076778e+02
      endloop
   endfacet
   facet normal -0.000000e+00 1.000000e+00 0.000000e+00
      outer loop
         vertex 1.624949e+02 8.166000e+00 3.076778e+02
         vertex 1.970682e+02 8.166000e+00 3.809181e+02
         vertex 1.620651e+02 8.166000e+00 3.060740e+02
      endloop
   endfacet
   facet normal 0.000000e+00 1.000000e+00 0.000000e+00
      outer loop
         vertex 1.437343e+02 8.166000e+00 3.109858e+02
         vertex 1.435896e+02 8.166000e+00 3.093318e+02
         vertex 1.503572e+01 8.166000e+00 2.909177e+02
      endloop
   endfacet
   facet normal 0.000000e+00 1.000000e+00 0.000000e+00
      outer loop
         vertex 1.503572e+01 8.166000e+00 2.909177e+02
         vertex 1.435896e+02 8.166000e+00 3.093318e+02
         vertex 1.437343e+02 8.166000e+00 3.076778e+02
      endloop
   endfacet
   facet normal 0.000000e+00 1.000000e+00 0.000000e+00
      outer loop
         vertex 1.604111e+02 8.166000e+00 3.032092e+02
         vertex 1.613635e+02 8.166000e+00 3.045693e+02
         vertex 2.986682e+02 8.166000e+00 3.222594e+02
      endloop
   endfacet
   facet normal 0.000000e+00 1.000000e+00 0.000000e+00
      outer loop
         vertex 1.483521e+02 8.166000e+00 3.010829e+02
         vertex 1.498568e+02 8.166000e+00 3.003812e+02
         vertex 1.130958e+02 8.166000e+00 2.354737e+02
      endloop
   endfacet
   facet normal 0.000000e+00 1.000000e+00 -0.000000e+00
      outer loop
         vertex 2.146958e+02 8.166000e+00 1.768149e+02
         vertex 1.130958e+02 8.166000e+00 1.768149e+02
         vertex 2.146958e+02 8.166000e+00 2.354737e+02
      endloop
   endfacet
   facet normal 0.000000e+00 1.000000e+00 0.000000e+00
      outer loop
         vertex 2.146958e+02 8.166000e+00 2.354737e+02
         vertex 1.130958e+02 8.166000e+00 1.768149e+02
         vertex 1.130958e+02 8.166000e+00 2.354737e+02
      endloop
   endfacet
   facet normal 0.000000e+00 1.000000e+00 -0.000000e+00
      outer loop
         vertex 2.146958e+02 8.166000e+00 2.354737e+02
         vertex 1.130958e+02 8.166000e+00 2.354737e+02
         vertex 2.478682e+02 8.166000e+00 2.929300e+02
      endloop
   endfacet
   facet normal 0.000000e+00 1.000000e+00 -0.000000e+00
      outer loop
         vertex 2.478682e+02 8.166000e+00 2.929300e+02
         vertex 1.130958e+02 8.166000e+00 2.354737e+02
         vertex 2.986682e+02 8.166000e+00 3.222594e+02
      endloop
   endfacet
   facet normal 0.000000e+00 1.000000e+00 0.000000e+00
      outer loop
         vertex 2.986682e+02 8.166000e+00 3.137043e+01
         vertex 1.970682e+02 8.166000e+00 3.137043e+01
         vertex 2.478682e+02 8.166000e+00 1.193586e+02
      endloop
   endfacet
   facet normal 0.000000e+00 1.000000e+00 0.000000e+00
      outer loop
         vertex 2.478682e+02 8.166000e+00 1.193586e+02
         vertex 1.970682e+02 8.166000e+00 3.137043e+01
         vertex 1.970682e+02 8.166000e+00 9.002922e+01
      endloop
   endfacet
   facet normal 0.000000e+00 1.000000e+00 0.000000e+00
      outer loop
         vertex 2.478682e+02 8.166000e+00 1.193586e+02
         vertex 1.970682e+02 8.166000e+00 9.002922e+01
         vertex 2.146958e+02 8.166000e+00 1.768149e+02
      endloop
   endfacet
   facet normal 0.000000e+00 1.000000e+00 0.000000e+00
      outer loop
         vertex 2.146958e+02 8.166000e+00 1.768149e+02
         vertex 1.970682e+02 8.166000e+00 9.002922e+01
         vertex 1.638958e+02 8.166000e+00 1.474855e+02
      endloop
   endfacet
   facet normal 0.000000e+00 1.000000e+00 0.000000e+00
      outer loop
         vertex 2.146958e+02 8.166000e+00 1.768149e+02
         vertex 1.638958e+02 8.166000e+00 1.474855e+02
         vertex 1.130958e+02 8.166000e+00 1.768149e+02
      endloop
   endfacet
   facet normal 0.000000e+00 1.000000e+00 -0.000000e+00
      outer loop
         vertex 1.626396e+02 8.166000e+00 3.093318e+02
         vertex 1.624949e+02 8.166000e+00 3.109858e+02
         vertex 1.970682e+02 8.166000e+00 3.809181e+02
      endloop
   endfacet
   facet normal 0.000000e+00 1.000000e+00 0.000000e+00
      outer loop
         vertex 1.970682e+02 8.166000e+00 3.809181e+02
         vertex 1.624949e+02 8.166000e+00 3.109858e+02
         vertex 1.620651e+02 8.166000e+00 3.125895e+02
      endloop
   endfacet
   facet normal 0.000000e+00 1.000000e+00 0.000000e+00
      outer loop
         vertex 1.970682e+02 8.166000e+00 3.809181e+02
         vertex 1.620651e+02 8.166000e+00 3.125895e+02
         vertex 1.613635e+02 8.166000e+00 3.140943e+02
      endloop
   endfacet
   facet normal 0.000000e+00 1.000000e+00 -0.000000e+00
      outer loop
         vertex 1.613635e+02 8.166000e+00 3.140943e+02
         vertex 1.604111e+02 8.166000e+00 3.154543e+02
         vertex 1.970682e+02 8.166000e+00 3.809181e+02
      endloop
   endfacet
   facet normal 0.000000e+00 1.000000e+00 0.000000e+00
      outer loop
         vertex 1.970682e+02 8.166000e+00 3.809181e+02
         vertex 1.604111e+02 8.166000e+00 3.154543e+02
         vertex 1.592371e+02 8.166000e+00 3.166284e+02
      endloop
   endfacet
   facet normal 0.000000e+00 1.000000e+00 0.000000e+00
      outer loop
         vertex 1.970682e+02 8.166000e+00 3.809181e+02
         vertex 1.592371e+02 8.166000e+00 3.166284e+02
         vertex 1.578771e+02 8.166000e+00 3.175807e+02
      endloop
   endfacet
   facet normal -0.000000e+00 1.000000e+00 -0.000000e+00
      outer loop
         vertex 1.531146e+02 8.166000e+00 3.188568e+02
         vertex 9.769203e+01 8.166000e+00 4.371063e+02
         vertex 1.547686e+02 8.166000e+00 3.187121e+02
      endloop
   endfacet
   facet normal 0.000000e+00 1.000000e+00 -0.000000e+00
      outer loop
         vertex 1.547686e+02 8.166000e+00 3.187121e+02
         vertex 9.769203e+01 8.166000e+00 4.371063e+02
         vertex 1.970682e+02 8.166000e+00 3.809181e+02
      endloop
   endfacet
   facet normal -0.000000e+00 1.000000e+00 0.000000e+00
      outer loop
         vertex 1.547686e+02 8.166000e+00 3.187121e+02
         vertex 1.970682e+02 8.166000e+00 3.809181e+02
         vertex 1.563723e+02 8.166000e+00 3.182824e+02
      endloop
   endfacet
   facet normal -0.000000e+00 1.000000e+00 0.000000e+00
      outer loop
         vertex 1.563723e+02 8.166000e+00 3.182824e+02
         vertex 1.970682e+02 8.166000e+00 3.809181e+02
         vertex 1.578771e+02 8.166000e+00 3.175807e+02
      endloop
   endfacet
   facet normal 0.000000e+00 1.000000e+00 0.000000e+00
      outer loop
         vertex 1.531146e+02 8.166000e+00 3.188568e+02
         vertex 1.514606e+02 8.166000e+00 3.187121e+02
         vertex 9.769203e+01 8.166000e+00 4.371063e+02
      endloop
   endfacet
   facet normal 0.000000e+00 1.000000e+00 0.000000e+00
      outer loop
         vertex 9.769203e+01 8.166000e+00 4.371063e+02
         vertex 1.514606e+02 8.166000e+00 3.187121e+02
         vertex 1.498568e+02 8.166000e+00 3.182824e+02
      endloop
   endfacet
   facet normal 0.000000e+00 1.000000e+00 0.000000e+00
      outer loop
         vertex 9.769203e+01 8.166000e+00 4.371063e+02
         vertex 1.498568e+02 8.166000e+00 3.182824e+02
         vertex 1.483521e+02 8.166000e+00 3.175807e+02
      endloop
   endfacet
   facet normal 0.000000e+00 1.000000e+00 0.000000e+00
      outer loop
         vertex 9.769203e+01 8.166000e+00 4.371063e+02
         vertex 1.448657e+02 8.166000e+00 3.140943e+02
         vertex 1.503572e+01 8.166000e+00 2.909177e+02
      endloop
   endfacet
   facet normal 0.000000e+00 1.000000e+00 0.000000e+00
      outer loop
         vertex 1.503572e+01 8.166000e+00 2.909177e+02
         vertex 1.448657e+02 8.166000e+00 3.140943e+02
         vertex 1.441640e+02 8.166000e+00 3.125895e+02
      endloop
   endfacet
   facet normal 0.000000e+00 1.000000e+00 0.000000e+00
      outer loop
         vertex 1.503572e+01 8.166000e+00 2.909177e+02
         vertex 1.441640e+02 8.166000e+00 3.125895e+02
         vertex 1.437343e+02 8.166000e+00 3.109858e+02
      endloop
   endfacet
   facet normal 0.000000e+00 1.000000e+00 0.000000e+00
      outer loop
         vertex 1.483521e+02 8.166000e+00 3.175807e+02
         vertex 1.469920e+02 8.166000e+00 3.166284e+02
         vertex 9.769203e+01 8.166000e+00 4.371063e+02
      endloop
   endfacet
   facet normal 0.000000e+00 1.000000e+00 0.000000e+00
      outer loop
         vertex 9.769203e+01 8.166000e+00 4.371063e+02
         vertex 1.469920e+02 8.166000e+00 3.166284e+02
         vertex 1.458180e+02 8.166000e+00 3.154543e+02
      endloop
   endfacet
   facet normal 0.000000e+00 1.000000e+00 0.000000e+00
      outer loop
         vertex 9.769203e+01 8.166000e+00 4.371063e+02
         vertex 1.458180e+02 8.166000e+00 3.154543e+02
         vertex 1.448657e+02 8.166000e+00 3.140943e+02
      endloop
   endfacet
   facet normal 0.000000e+00 1.000000e+00 0.000000e+00
      outer loop
         vertex 1.483521e+02 8.166000e+00 3.010829e+02
         vertex 1.130958e+02 8.166000e+00 2.354737e+02
         vertex 1.469920e+02 8.166000e+00 3.020352e+02
      endloop
   endfacet
   facet normal 0.000000e+00 1.000000e+00 0.000000e+00
      outer loop
         vertex 2.478682e+02 8.166000e+00 4.102475e+02
         vertex 2.986682e+02 8.166000e+00 3.809181e+02
         vertex 1.970682e+02 8.166000e+00 3.809181e+02
      endloop
   endfacet
   facet normal -0.000000e+00 1.000000e+00 0.000000e+00
      outer loop
         vertex 1.970682e+02 8.166000e+00 3.809181e+02
         vertex 2.986682e+02 8.166000e+00 3.809181e+02
         vertex 2.986682e+02 8.166000e+00 3.222594e+02
      endloop
   endfacet
   facet normal 0.000000e+00 1.000000e+00 0.000000e+00
      outer loop
         vertex 1.970682e+02 8.166000e+00 3.809181e+02
         vertex 2.986682e+02 8.166000e+00 3.222594e+02
         vertex 1.620651e+02 8.166000e+00 3.060740e+02
      endloop
   endfacet
   facet normal -0.000000e+00 1.000000e+00 0.000000e+00
      outer loop
         vertex 1.620651e+02 8.166000e+00 3.060740e+02
         vertex 2.986682e+02 8.166000e+00 3.222594e+02
         vertex 1.613635e+02 8.166000e+00 3.045693e+02
      endloop
   endfacet
   facet normal 0.000000e+00 1.000000e+00 0.000000e+00
      outer loop
         vertex 1.437343e+02 8.166000e+00 3.076778e+02
         vertex 1.441640e+02 8.166000e+00 3.060740e+02
         vertex 1.503572e+01 8.166000e+00 2.909177e+02
      endloop
   endfacet
   facet normal 0.000000e+00 1.000000e+00 0.000000e+00
      outer loop
         vertex 1.503572e+01 8.166000e+00 2.909177e+02
         vertex 1.441640e+02 8.166000e+00 3.060740e+02
         vertex 1.448657e+02 8.166000e+00 3.045693e+02
      endloop
   endfacet
   facet normal -0.000000e+00 1.000000e+00 0.000000e+00
      outer loop
         vertex 1.503572e+01 8.166000e+00 2.909177e+02
         vertex 1.448657e+02 8.166000e+00 3.045693e+02
         vertex 1.130958e+02 8.166000e+00 2.354737e+02
      endloop
   endfacet
   facet normal 0.000000e+00 1.000000e+00 0.000000e+00
      outer loop
         vertex 1.130958e+02 8.166000e+00 2.354737e+02
         vertex 1.448657e+02 8.166000e+00 3.045693e+02
         vertex 1.458180e+02 8.166000e+00 3.032092e+02
      endloop
   endfacet
   facet normal 0.000000e+00 1.000000e+00 0.000000e+00
      outer loop
         vertex 1.130958e+02 8.166000e+00 2.354737e+02
         vertex 1.458180e+02 8.166000e+00 3.032092e+02
         vertex 1.469920e+02 8.166000e+00 3.020352e+02
      endloop
   endfacet
   facet normal 0.000000e+00 1.000000e+00 0.000000e+00
      outer loop
         vertex 1.498568e+02 8.166000e+00 3.003812e+02
         vertex 1.514606e+02 8.166000e+00 2.999515e+02
         vertex 1.130958e+02 8.166000e+00 2.354737e+02
      endloop
   endfacet
   facet normal 0.000000e+00 1.000000e+00 0.000000e+00
      outer loop
         vertex 1.130958e+02 8.166000e+00 2.354737e+02
         vertex 1.514606e+02 8.166000e+00 2.999515e+02
         vertex 1.531146e+02 8.166000e+00 2.998068e+02
      endloop
   endfacet
   facet normal 0.000000e+00 1.000000e+00 0.000000e+00
      outer loop
         vertex 1.130958e+02 8.166000e+00 2.354737e+02
         vertex 1.531146e+02 8.166000e+00 2.998068e+02
         vertex 1.547686e+02 8.166000e+00 2.999515e+02
      endloop
   endfacet
   facet normal -0.000000e+00 1.000000e+00 0.000000e+00
      outer loop
         vertex 1.547686e+02 8.166000e+00 2.999515e+02
         vertex 1.563723e+02 8.166000e+00 3.003812e+02
         vertex 1.130958e+02 8.166000e+00 2.354737e+02
      endloop
   endfacet
   facet normal 0.000000e+00 1.000000e+00 0.000000e+00
      outer loop
         vertex 1.130958e+02 8.166000e+00 2.354737e+02
         vertex 1.563723e+02 8.166000e+00 3.003812e+02
         vertex 1.578771e+02 8.166000e+00 3.010829e+02
      endloop
   endfacet
   facet normal 0.000000e+00 1.000000e+00 0.000000e+00
      outer loop
         vertex 1.130958e+02 8.166000e+00 2.354737e+02
         vertex 1.578771e+02 8.166000e+00 3.010829e+02
         vertex 2.986682e+02 8.166000e+00 3.222594e+02
      endloop
   endfacet
   facet normal 0.000000e+00 1.000000e+00 0.000000e+00
      outer loop
         vertex 2.986682e+02 8.166000e+00 3.222594e+02
         vertex 1.578771e+02 8.166000e+00 3.010829e+02
         vertex 1.592371e+02 8.166000e+00 3.020352e+02
      endloop
   endfacet
   facet normal 0.000000e+00 1.000000e+00 0.000000e+00
      outer loop
         vertex 2.986682e+02 8.166000e+00 3.222594e+02
         vertex 1.592371e+02 8.166000e+00 3.020352e+02
         vertex 1.604111e+02 8.166000e+00 3.032092e+02
      endloop
   endfacet
   facet normal 0.000000e+00 -1.000000e+00 0.000000e+00
      outer loop
         vertex 1.130958e+02 6.666000e+00 2.354737e+02
         vertex 1.130958e+02 6.666000e+00 1.768149e+02
         vertex 1.638958e+02 6.666000e+00 1.474855e+02
      endloop
   endfacet
   facet normal -0.000000e+00 -1.000000e+00 0.000000e+00
      outer loop
         vertex 1.437343e+02 6.666000e+00 3.076778e+02
         vertex 1.435896e+02 6.666000e+00 3.093318e+02
         vertex 1.503572e+01 6.666000e+00 2.909177e+02
      endloop
   endfacet
   facet normal 0.000000e+00 -1.000000e+00 0.000000e+00
      outer loop
         vertex 1.970682e+02 6.666000e+00 9.002922e+01
         vertex 1.970682e+02 6.666000e+00 3.137043e+01
         vertex 2.478682e+02 6.666000e+00 1.193586e+02
      endloop
   endfacet
   facet normal 0.000000e+00 -1.000000e+00 0.000000e+00
      outer loop
         vertex 1.970682e+02 6.666000e+00 3.137043e+01
         vertex 2.478682e+02 6.666000e+00 2.041042e+00
         vertex 2.478682e+02 6.666000e+00 1.193586e+02
      endloop
   endfacet
   facet normal 0.000000e+00 -1.000000e+00 0.000000e+00
      outer loop
         vertex 2.478682e+02 6.666000e+00 1.193586e+02
         vertex 2.478682e+02 6.666000e+00 2.041042e+00
         vertex 2.986682e+02 6.666000e+00 3.137043e+01
      endloop
   endfacet
   facet normal 0.000000e+00 -1.000000e+00 0.000000e+00
      outer loop
         vertex 2.478682e+02 6.666000e+00 1.193586e+02
         vertex 2.986682e+02 6.666000e+00 3.137043e+01
         vertex 2.986682e+02 6.666000e+00 9.002922e+01
      endloop
   endfacet
   facet normal 0.000000e+00 -1.000000e+00 -0.000000e+00
      outer loop
         vertex 1.437343e+02 6.666000e+00 3.076778e+02
         vertex 1.503572e+01 6.666000e+00 2.909177e+02
         vertex 1.441640e+02 6.666000e+00 3.060740e+02
      endloop
   endfacet
   facet normal 0.000000e+00 -1.000000e+00 0.000000e+00
      outer loop
         vertex 2.478682e+02 6.666000e+00 2.929300e+02
         vertex 2.986682e+02 6.666000e+00 3.222594e+02
         vertex 2.986682e+02 6.666000e+00 3.809181e+02
      endloop
   endfacet
   facet normal -0.000000e+00 -1.000000e+00 0.000000e+00
      outer loop
         vertex 2.478682e+02 6.666000e+00 1.193586e+02
         vertex 2.146958e+02 6.666000e+00 1.768149e+02
         vertex 1.970682e+02 6.666000e+00 9.002922e+01
      endloop
   endfacet
   facet normal 0.000000e+00 -1.000000e+00 0.000000e+00
      outer loop
         vertex 1.970682e+02 6.666000e+00 9.002922e+01
         vertex 2.146958e+02 6.666000e+00 1.768149e+02
         vertex 2.146958e+02 6.666000e+00 2.354737e+02
      endloop
   endfacet
   facet normal 0.000000e+00 -1.000000e+00 0.000000e+00
      outer loop
         vertex 1.970682e+02 6.666000e+00 9.002922e+01
         vertex 2.146958e+02 6.666000e+00 2.354737e+02
         vertex 1.970682e+02 6.666000e+00 3.809181e+02
      endloop
   endfacet
   facet normal 0.000000e+00 -1.000000e+00 0.000000e+00
      outer loop
         vertex 1.970682e+02 6.666000e+00 3.809181e+02
         vertex 2.146958e+02 6.666000e+00 2.354737e+02
         vertex 2.478682e+02 6.666000e+00 2.929300e+02
      endloop
   endfacet
   facet normal 0.000000e+00 -1.000000e+00 0.000000e+00
      outer loop
         vertex 1.970682e+02 6.666000e+00 3.809181e+02
         vertex 2.478682e+02 6.666000e+00 2.929300e+02
         vertex 2.478682e+02 6.666000e+00 4.102475e+02
      endloop
   endfacet
   facet normal 0.000000e+00 -1.000000e+00 0.000000e+00
      outer loop
         vertex 2.478682e+02 6.666000e+00 4.102475e+02
         vertex 2.478682e+02 6.666000e+00 2.929300e+02
         vertex 2.986682e+02 6.666000e+00 3.809181e+02
      endloop
   endfacet
   facet normal 0.000000e+00 -1.000000e+00 0.000000e+00
      outer loop
         vertex 1.130958e+02 6.666000e+00 2.354737e+02
         vertex 1.498568e+02 6.666000e+00 3.003812e+02
         vertex 1.483521e+02 6.666000e+00 3.010829e+02
      endloop
   endfacet
   facet normal 0.000000e+00 -1.000000e+00 0.000000e+00
      outer loop
         vertex 1.970682e+02 6.666000e+00 3.809181e+02
         vertex 1.626396e+02 6.666000e+00 3.093318e+02
         vertex 1.624949e+02 6.666000e+00 3.076778e+02
      endloop
   endfacet
   facet normal 0.000000e+00 -1.000000e+00 -0.000000e+00
      outer loop
         vertex 1.970682e+02 6.666000e+00 3.809181e+02
         vertex 1.624949e+02 6.666000e+00 3.076778e+02
         vertex 1.970682e+02 6.666000e+00 9.002922e+01
      endloop
   endfacet
   facet normal 0.000000e+00 -1.000000e+00 0.000000e+00
      outer loop
         vertex 1.970682e+02 6.666000e+00 9.002922e+01
         vertex 1.624949e+02 6.666000e+00 3.076778e+02
         vertex 1.620651e+02 6.666000e+00 3.060740e+02
      endloop
   endfacet
   facet normal 0.000000e+00 -1.000000e+00 0.000000e+00
      outer loop
         vertex 1.970682e+02 6.666000e+00 9.002922e+01
         vertex 1.620651e+02 6.666000e+00 3.060740e+02
         vertex 1.613635e+02 6.666000e+00 3.045693e+02
      endloop
   endfacet
   facet normal -0.000000e+00 -1.000000e+00 0.000000e+00
      outer loop
         vertex 1.483521e+02 6.666000e+00 3.010829e+02
         vertex 1.469920e+02 6.666000e+00 3.020352e+02
         vertex 1.130958e+02 6.666000e+00 2.354737e+02
      endloop
   endfacet
   facet normal 0.000000e+00 -1.000000e+00 0.000000e+00
      outer loop
         vertex 1.130958e+02 6.666000e+00 2.354737e+02
         vertex 1.469920e+02 6.666000e+00 3.020352e+02
         vertex 1.458180e+02 6.666000e+00 3.032092e+02
      endloop
   endfacet
   facet normal 0.000000e+00 -1.000000e+00 0.000000e+00
      outer loop
         vertex 1.130958e+02 6.666000e+00 2.354737e+02
         vertex 1.458180e+02 6.666000e+00 3.032092e+02
         vertex 1.503572e+01 6.666000e+00 2.909177e+02
      endloop
   endfacet
   facet normal 0.000000e+00 -1.000000e+00 0.000000e+00
      outer loop
         vertex 1.503572e+01 6.666000e+00 2.909177e+02
         vertex 1.458180e+02 6.666000e+00 3.032092e+02
         vertex 1.448657e+02 6.666000e+00 3.045693e+02
      endloop
   endfacet
   facet normal 0.000000e+00 -1.000000e+00 0.000000e+00
      outer loop
         vertex 1.503572e+01 6.666000e+00 2.909177e+02
         vertex 1.448657e+02 6.666000e+00 3.045693e+02
         vertex 1.441640e+02 6.666000e+00 3.060740e+02
      endloop
   endfacet
   facet normal -0.000000e+00 -1.000000e+00 0.000000e+00
      outer loop
         vertex 1.435896e+02 6.666000e+00 3.093318e+02
         vertex 1.437343e+02 6.666000e+00 3.109858e+02
         vertex 1.503572e+01 6.666000e+00 2.909177e+02
      endloop
   endfacet
   facet normal 0.000000e+00 -1.000000e+00 0.000000e+00
      outer loop
         vertex 1.503572e+01 6.666000e+00 2.909177e+02
         vertex 1.437343e+02 6.666000e+00 3.109858e+02
         vertex 1.441640e+02 6.666000e+00 3.125895e+02
      endloop
   endfacet
   facet normal 0.000000e+00 -1.000000e+00 0.000000e+00
      outer loop
         vertex 1.503572e+01 6.666000e+00 2.909177e+02
         vertex 1.441640e+02 6.666000e+00 3.125895e+02
         vertex 9.769203e+01 6.666000e+00 4.371063e+02
      endloop
   endfacet
   facet normal 0.000000e+00 -1.000000e+00 0.000000e+00
      outer loop
         vertex 9.769203e+01 6.666000e+00 4.371063e+02
         vertex 1.441640e+02 6.666000e+00 3.125895e+02
         vertex 1.448657e+02 6.666000e+00 3.140943e+02
      endloop
   endfacet
   facet normal 0.000000e+00 -1.000000e+00 0.000000e+00
      outer loop
         vertex 9.769203e+01 6.666000e+00 4.371063e+02
         vertex 1.448657e+02 6.666000e+00 3.140943e+02
         vertex 1.458180e+02 6.666000e+00 3.154543e+02
      endloop
   endfacet
   facet normal 0.000000e+00 -1.000000e+00 -0.000000e+00
      outer loop
         vertex 1.613635e+02 6.666000e+00 3.045693e+02
         vertex 1.604111e+02 6.666000e+00 3.032092e+02
         vertex 1.970682e+02 6.666000e+00 9.002922e+01
      endloop
   endfacet
   facet normal 0.000000e+00 -1.000000e+00 0.000000e+00
      outer loop
         vertex 1.970682e+02 6.666000e+00 9.002922e+01
         vertex 1.604111e+02 6.666000e+00 3.032092e+02
         vertex 1.592371e+02 6.666000e+00 3.020352e+02
      endloop
   endfacet
   facet normal 0.000000e+00 -1.000000e+00 0.000000e+00
      outer loop
         vertex 1.970682e+02 6.666000e+00 9.002922e+01
         vertex 1.592371e+02 6.666000e+00 3.020352e+02
         vertex 1.578771e+02 6.666000e+00 3.010829e+02
      endloop
   endfacet
   facet normal 0.000000e+00 -1.000000e+00 -0.000000e+00
      outer loop
         vertex 1.578771e+02 6.666000e+00 3.010829e+02
         vertex 1.563723e+02 6.666000e+00 3.003812e+02
         vertex 1.970682e+02 6.666000e+00 9.002922e+01
      endloop
   endfacet
   facet normal 0.000000e+00 -1.000000e+00 0.000000e+00
      outer loop
         vertex 1.970682e+02 6.666000e+00 9.002922e+01
         vertex 1.563723e+02 6.666000e+00 3.003812e+02
         vertex 1.547686e+02 6.666000e+00 2.999515e+02
      endloop
   endfacet
   facet normal 0.000000e+00 -1.000000e+00 0.000000e+00
      outer loop
         vertex 1.970682e+02 6.666000e+00 9.002922e+01
         vertex 1.547686e+02 6.666000e+00 2.999515e+02
         vertex 1.638958e+02 6.666000e+00 1.474855e+02
      endloop
   endfacet
   facet normal 0.000000e+00 -1.000000e+00 0.000000e+00
      outer loop
         vertex 1.638958e+02 6.666000e+00 1.474855e+02
         vertex 1.547686e+02 6.666000e+00 2.999515e+02
         vertex 1.531146e+02 6.666000e+00 2.998068e+02
      endloop
   endfacet
   facet normal 0.000000e+00 -1.000000e+00 0.000000e+00
      outer loop
         vertex 1.638958e+02 6.666000e+00 1.474855e+02
         vertex 1.531146e+02 6.666000e+00 2.998068e+02
         vertex 1.130958e+02 6.666000e+00 2.354737e+02
      endloop
   endfacet
   facet normal 0.000000e+00 -1.000000e+00 0.000000e+00
      outer loop
         vertex 1.130958e+02 6.666000e+00 2.354737e+02
         vertex 1.531146e+02 6.666000e+00 2.998068e+02
         vertex 1.514606e+02 6.666000e+00 2.999515e+02
      endloop
   endfacet
   facet normal 0.000000e+00 -1.000000e+00 0.000000e+00
      outer loop
         vertex 1.130958e+02 6.666000e+00 2.354737e+02
         vertex 1.514606e+02 6.666000e+00 2.999515e+02
         vertex 1.498568e+02 6.666000e+00 3.003812e+02
      endloop
   endfacet
   facet normal 0.000000e+00 -1.000000e+00 0.000000e+00
      outer loop
         vertex 1.458180e+02 6.666000e+00 3.154543e+02
         vertex 1.469920e+02 6.666000e+00 3.166284e+02
         vertex 9.769203e+01 6.666000e+00 4.371063e+02
      endloop
   endfacet
   facet normal 0.000000e+00 -1.000000e+00 0.000000e+00
      outer loop
         vertex 9.769203e+01 6.666000e+00 4.371063e+02
         vertex 1.469920e+02 6.666000e+00 3.166284e+02
         vertex 1.483521e+02 6.666000e+00 3.175807e+02
      endloop
   endfacet
   facet normal 0.000000e+00 -1.000000e+00 0.000000e+00
      outer loop
         vertex 9.769203e+01 6.666000e+00 4.371063e+02
         vertex 1.483521e+02 6.666000e+00 3.175807e+02
         vertex 1.498568e+02 6.666000e+00 3.182824e+02
      endloop
   endfacet
   facet normal 0.000000e+00 -1.000000e+00 0.000000e+00
      outer loop
         vertex 1.970682e+02 6.666000e+00 3.809181e+02
         vertex 1.563723e+02 6.666000e+00 3.182824e+02
         vertex 1.578771e+02 6.666000e+00 3.175807e+02
      endloop
   endfacet
   facet normal 0.000000e+00 -1.000000e+00 0.000000e+00
      outer loop
         vertex 1.613635e+02 6.666000e+00 3.140943e+02
         vertex 1.620651e+02 6.666000e+00 3.125895e+02
         vertex 1.970682e+02 6.666000e+00 3.809181e+02
      endloop
   endfacet
   facet normal 0.000000e+00 -1.000000e+00 0.000000e+00
      outer loop
         vertex 1.970682e+02 6.666000e+00 3.809181e+02
         vertex 1.620651e+02 6.666000e+00 3.125895e+02
         vertex 1.624949e+02 6.666000e+00 3.109858e+02
      endloop
   endfacet
   facet normal 0.000000e+00 -1.000000e+00 0.000000e+00
      outer loop
         vertex 1.970682e+02 6.666000e+00 3.809181e+02
         vertex 1.624949e+02 6.666000e+00 3.109858e+02
         vertex 1.626396e+02 6.666000e+00 3.093318e+02
      endloop
   endfacet
   facet normal 0.000000e+00 -1.000000e+00 0.000000e+00
      outer loop
         vertex 1.578771e+02 6.666000e+00 3.175807e+02
         vertex 1.592371e+02 6.666000e+00 3.166284e+02
         vertex 1.970682e+02 6.666000e+00 3.809181e+02
      endloop
   endfacet
   facet normal 0.000000e+00 -1.000000e+00 0.000000e+00
      outer loop
         vertex 1.970682e+02 6.666000e+00 3.809181e+02
         vertex 1.592371e+02 6.666000e+00 3.166284e+02
         vertex 1.604111e+02 6.666000e+00 3.154543e+02
      endloop
   endfacet
   facet normal 0.000000e+00 -1.000000e+00 0.000000e+00
      outer loop
         vertex 1.970682e+02 6.666000e+00 3.809181e+02
         vertex 1.604111e+02 6.666000e+00 3.154543e+02
         vertex 1.613635e+02 6.666000e+00 3.140943e+02
      endloop
   endfacet
   facet normal 0.000000e+00 -1.000000e+00 0.000000e+00
      outer loop
         vertex 1.498568e+02 6.666000e+00 3.182824e+02
         vertex 1.514606e+02 6.666000e+00 3.187121e+02
         vertex 9.769203e+01 6.666000e+00 4.371063e+02
      endloop
   endfacet
   facet normal 0.000000e+00 -1.000000e+00 0.000000e+00
      outer loop
         vertex 9.769203e+01 6.666000e+00 4.371063e+02
         vertex 1.514606e+02 6.666000e+00 3.187121e+02
         vertex 1.531146e+02 6.666000e+00 3.188568e+02
      endloop
   endfacet
   facet normal 0.000000e+00 -1.000000e+00 0.000000e+00
      outer loop
         vertex 9.769203e+01 6.666000e+00 4.371063e+02
         vertex 1.531146e+02 6.666000e+00 3.188568e+02
         vertex 1.970682e+02 6.666000e+00 3.809181e+02
      endloop
   endfacet
   facet normal 0.000000e+00 -1.000000e+00 0.000000e+00
      outer loop
         vertex 1.970682e+02 6.666000e+00 3.809181e+02
         vertex 1.531146e+02 6.666000e+00 3.188568e+02
         vertex 1.547686e+02 6.666000e+00 3.187121e+02
      endloop
   endfacet
   facet normal 0.000000e+00 -1.000000e+00 0.000000e+00
      outer loop
         vertex 1.970682e+02 6.666000e+00 3.809181e+02
         vertex 1.547686e+02 6.666000e+00 3.187121e+02
         vertex 1.563723e+02 6.666000e+00 3.182824e+02
      endloop
   endfacet
   facet normal -8.715515e-02 0.000000e+00 -9.961948e-01
      outer loop
         vertex 1.531146e+02 6.666000e+00 3.188568e+02
         vertex 1.531146e+02 8.166000e+00 3.188568e+02
         vertex 1.547686e+02 6.666000e+00 3.187121e+02
      endloop
   endfacet
   facet normal -8.715515e-02 0.000000e+00 -9.961948e-01
      outer loop
         vertex 1.547686e+02 6.666000e+00 3.187121e+02
         vertex 1.531146e+02 8.166000e+00 3.188568e+02
         vertex 1.547686e+02 8.166000e+00 3.187121e+02
      endloop
   endfacet
   facet normal -2.588230e-01 0.000000e+00 -9.659248e-01
      outer loop
         vertex 1.547686e+02 6.666000e+00 3.187121e+02
         vertex 1.547686e+02 8.166000e+00 3.187121e+02
         vertex 1.563723e+02 6.666000e+00 3.182824e+02
      endloop
   endfacet
   facet normal -2.588230e-01 0.000000e+00 -9.659248e-01
      outer loop
         vertex 1.563723e+02 6.666000e+00 3.182824e+02
         vertex 1.547686e+02 8.166000e+00 3.187121e+02
         vertex 1.563723e+02 8.166000e+00 3.182824e+02
      endloop
   endfacet
   facet normal -4.226172e-01 0.000000e+00 -9.063083e-01
      outer loop
         vertex 1.563723e+02 6.666000e+00 3.182824e+02
         vertex 1.563723e+02 8.166000e+00 3.182824e+02
         vertex 1.578771e+02 6.666000e+00 3.175807e+02
      endloop
   endfacet
   facet normal -4.226172e-01 0.000000e+00 -9.063083e-01
      outer loop
         vertex 1.578771e+02 6.666000e+00 3.175807e+02
         vertex 1.563723e+02 8.166000e+00 3.182824e+02
         vertex 1.578771e+02 8.166000e+00 3.175807e+02
      endloop
   endfacet
   facet normal -5.735786e-01 0.000000e+00 -8.191505e-01
      outer loop
         vertex 1.578771e+02 6.666000e+00 3.175807e+02
         vertex 1.578771e+02 8.166000e+00 3.175807e+02
         vertex 1.592371e+02 6.666000e+00 3.166284e+02
      endloop
   endfacet
   facet normal -5.735786e-01 0.000000e+00 -8.191505e-01
      outer loop
         vertex 1.592371e+02 6.666000e+00 3.166284e+02
         vertex 1.578771e+02 8.166000e+00 3.175807e+02
         vertex 1.592371e+02 8.166000e+00 3.166284e+02
      endloop
   endfacet
   facet normal -7.071068e-01 0.000000e+00 -7.071068e-01
      outer loop
         vertex 1.592371e+02 6.666000e+00 3.166284e+02
         vertex 1.592371e+02 8.166000e+00 3.166284e+02
         vertex 1.604111e+02 6.666000e+00 3.154543e+02
      endloop
   endfacet
   facet normal -7.071068e-01 0.000000e+00 -7.071068e-01
      outer loop
         vertex 1.604111e+02 6.666000e+00 3.154543e+02
         vertex 1.592371e+02 8.166000e+00 3.166284e+02
         vertex 1.604111e+02 8.166000e+00 3.154543e+02
      endloop
   endfacet
   facet normal -8.191520e-01 0.000000e+00 -5.735765e-01
      outer loop
         vertex 1.604111e+02 6.666000e+00 3.154543e+02
         vertex 1.604111e+02 8.166000e+00 3.154543e+02
         vertex 1.613635e+02 6.666000e+00 3.140943e+02
      endloop
   endfacet
   facet normal -8.191520e-01 0.000000e+00 -5.735765e-01
      outer loop
         vertex 1.613635e+02 6.666000e+00 3.140943e+02
         vertex 1.604111e+02 8.166000e+00 3.154543e+02
         vertex 1.613635e+02 8.166000e+00 3.140943e+02
      endloop
   endfacet
   facet normal -9.063075e-01 0.000000e+00 -4.226189e-01
      outer loop
         vertex 1.613635e+02 6.666000e+00 3.140943e+02
         vertex 1.613635e+02 8.166000e+00 3.140943e+02
         vertex 1.620651e+02 6.666000e+00 3.125895e+02
      endloop
   endfacet
   facet normal -9.063075e-01 0.000000e+00 -4.226189e-01
      outer loop
         vertex 1.620651e+02 6.666000e+00 3.125895e+02
         vertex 1.613635e+02 8.166000e+00 3.140943e+02
         vertex 1.620651e+02 8.166000e+00 3.125895e+02
      endloop
   endfacet
   facet normal -9.659240e-01 0.000000e+00 -2.588260e-01
      outer loop
         vertex 1.620651e+02 6.666000e+00 3.125895e+02
         vertex 1.620651e+02 8.166000e+00 3.125895e+02
         vertex 1.624949e+02 6.666000e+00 3.109858e+02
      endloop
   endfacet
   facet normal -9.659240e-01 0.000000e+00 -2.588260e-01
      outer loop
         vertex 1.624949e+02 6.666000e+00 3.109858e+02
         vertex 1.620651e+02 8.166000e+00 3.125895e+02
         vertex 1.624949e+02 8.166000e+00 3.109858e+02
      endloop
   endfacet
   facet normal -9.961948e-01 0.000000e+00 -8.715515e-02
      outer loop
         vertex 1.624949e+02 6.666000e+00 3.109858e+02
         vertex 1.624949e+02 8.166000e+00 3.109858e+02
         vertex 1.626396e+02 6.666000e+00 3.093318e+02
      endloop
   endfacet
   facet normal -9.961948e-01 0.000000e+00 -8.715515e-02
      outer loop
         vertex 1.626396e+02 6.666000e+00 3.093318e+02
         vertex 1.624949e+02 8.166000e+00 3.109858e+02
         vertex 1.626396e+02 8.166000e+00 3.093318e+02
      endloop
   endfacet
   facet normal -9.961948e-01 0.000000e+00 8.715515e-02
      outer loop
         vertex 1.626396e+02 6.666000e+00 3.093318e+02
         vertex 1.626396e+02 8.166000e+00 3.093318e+02
         vertex 1.624949e+02 6.666000e+00 3.076778e+02
      endloop
   endfacet
   facet normal -9.961948e-01 0.000000e+00 8.715515e-02
      outer loop
         vertex 1.624949e+02 6.666000e+00 3.076778e+02
         vertex 1.626396e+02 8.166000e+00 3.093318e+02
         vertex 1.624949e+02 8.166000e+00 3.076778e+02
      endloop
   endfacet
   facet normal -9.659240e-01 0.000000e+00 2.588260e-01
      outer loop
         vertex 1.624949e+02 6.666000e+00 3.076778e+02
         vertex 1.624949e+02 8.166000e+00 3.076778e+02
         vertex 1.620651e+02 6.666000e+00 3.060740e+02
      endloop
   endfacet
   facet normal -9.659240e-01 0.000000e+00 2.588260e-01
      outer loop
         vertex 1.620651e+02 6.666000e+00 3.060740e+02
         vertex 1.624949e+02 8.166000e+00 3.076778e+02
         vertex 1.620651e+02 8.166000e+00 3.060740e+02
      endloop
   endfacet
   facet normal -9.063075e-01 0.000000e+00 4.226189e-01
      outer loop
         vertex 1.620651e+02 6.666000e+00 3.060740e+02
         vertex 1.620651e+02 8.166000e+00 3.060740e+02
         vertex 1.613635e+02 6.666000e+00 3.045693e+02
      endloop
   endfacet
   facet normal -9.063075e-01 0.000000e+00 4.226189e-01
      outer loop
         vertex 1.613635e+02 6.666000e+00 3.045693e+02
         vertex 1.620651e+02 8.166000e+00 3.060740e+02
         vertex 1.613635e+02 8.166000e+00 3.045693e+02
      endloop
   endfacet
   facet normal -8.191520e-01 0.000000e+00 5.735765e-01
      outer loop
         vertex 1.613635e+02 6.666000e+00 3.045693e+02
         vertex 1.613635e+02 8.166000e+00 3.045693e+02
         vertex 1.604111e+02 6.666000e+00 3.032092e+02
      endloop
   endfacet
   facet normal -8.191520e-01 0.000000e+00 5.735765e-01
      outer loop
         vertex 1.604111e+02 6.666000e+00 3.032092e+02
         vertex 1.613635e+02 8.166000e+00 3.045693e+02
         vertex 1.604111e+02 8.166000e+00 3.032092e+02
      endloop
   endfacet
   facet normal -7.071090e-01 0.000000e+00 7.071045e-01
      outer loop
         vertex 1.604111e+02 6.666000e+00 3.032092e+02
         vertex 1.604111e+02 8.166000e+00 3.032092e+02
         vertex 1.592371e+02 6.666000e+00 3.020352e+02
      endloop
   endfacet
   facet normal -7.071090e-01 0.000000e+00 7.071045e-01
      outer loop
         vertex 1.592371e+02 6.666000e+00 3.020352e+02
         vertex 1.604111e+02 8.166000e+00 3.032092e+02
         vertex 1.592371e+02 8.166000e+00 3.020352e+02
      endloop
   endfacet
   facet normal -5.735786e-01 0.000000e+00 8.191505e-01
      outer loop
         vertex 1.592371e+02 6.666000e+00 3.020352e+02
         vertex 1.592371e+02 8.166000e+00 3.020352e+02
         vertex 1.578771e+02 6.666000e+00 3.010829e+02
      endloop
   endfacet
   facet normal -5.735786e-01 0.000000e+00 8.191505e-01
      outer loop
         vertex 1.578771e+02 6.666000e+00 3.010829e+02
         vertex 1.592371e+02 8.166000e+00 3.020352e+02
         vertex 1.578771e+02 8.166000e+00 3.010829e+02
      endloop
   endfacet
   facet normal -4.226172e-01 0.000000e+00 9.063083e-01
      outer loop
         vertex 1.578771e+02 6.666000e+00 3.010829e+02
         vertex 1.578771e+02 8.166000e+00 3.010829e+02
         vertex 1.563723e+02 6.666000e+00 3.003812e+02
      endloop
   endfacet
   facet normal -4.226172e-01 0.000000e+00 9.063083e-01
      outer loop
         vertex 1.563723e+02 6.666000e+00 3.003812e+02
         vertex 1.578771e+02 8.166000e+00 3.010829e+02
         vertex 1.563723e+02 8.166000e+00 3.003812e+02
      endloop
   endfacet
   facet normal -2.588188e-01 0.000000e+00 9.659259e-01
      outer loop
         vertex 1.563723e+02 6.666000e+00 3.003812e+02
         vertex 1.563723e+02 8.166000e+00 3.003812e+02
         vertex 1.547686e+02 6.666000e+00 2.999515e+02
      endloop
   endfacet
   facet normal -2.588188e-01 0.000000e+00 9.659259e-01
      outer loop
         vertex 1.547686e+02 6.666000e+00 2.999515e+02
         vertex 1.563723e+02 8.166000e+00 3.003812e+02
         vertex 1.547686e+02 8.166000e+00 2.999515e+02
      endloop
   endfacet
   facet normal -8.715515e-02 0.000000e+00 9.961948e-01
      outer loop
         vertex 1.547686e+02 6.666000e+00 2.999515e+02
         vertex 1.547686e+02 8.166000e+00 2.999515e+02
         vertex 1.531146e+02 6.666000e+00 2.998068e+02
      endloop
   endfacet
   facet normal -8.715515e-02 0.000000e+00 9.961948e-01
      outer loop
         vertex 1.531146e+02 6.666000e+00 2.998068e+02
         vertex 1.547686e+02 8.166000e+00 2.999515e+02
         vertex 1.531146e+02 8.166000e+00 2.998068e+02
      endloop
   endfacet
   facet normal 8.715515e-02 -0.000000e+00 9.961948e-01
      outer loop
         vertex 1.531146e+02 6.666000e+00 2.998068e+02
         vertex 1.531146e+02 8.166000e+00 2.998068e+02
         vertex 1.514606e+02 6.666000e+00 2.999515e+02
      endloop
   endfacet
   facet normal 8.715515e-02 -0.000000e+00 9.961948e-01
      outer loop
         vertex 1.514606e+02 6.666000e+00 2.999515e+02
         vertex 1.531146e+02 8.166000e+00 2.998068e+02
         vertex 1.514606e+02 8.166000e+00 2.999515e+02
      endloop
   endfacet
   facet normal 2.588165e-01 -0.000000e+00 9.659265e-01
      outer loop
         vertex 1.514606e+02 6.666000e+00 2.999515e+02
         vertex 1.514606e+02 8.166000e+00 2.999515e+02
         vertex 1.498568e+02 6.666000e+00 3.003812e+02
      endloop
   endfacet
   facet normal 2.588165e-01 -0.000000e+00 9.659265e-01
      outer loop
         vertex 1.498568e+02 6.666000e+00 3.003812e+02
         vertex 1.514606e+02 8.166000e+00 2.999515e+02
         vertex 1.498568e+02 8.166000e+00 3.003812e+02
      endloop
   endfacet
   facet normal 4.226206e-01 -0.000000e+00 9.063067e-01
      outer loop
         vertex 1.498568e+02 6.666000e+00 3.003812e+02
         vertex 1.498568e+02 8.166000e+00 3.003812e+02
         vertex 1.483521e+02 6.666000e+00 3.010829e+02
      endloop
   endfacet
   facet normal 4.226206e-01 -0.000000e+00 9.063067e-01
      outer loop
         vertex 1.483521e+02 6.666000e+00 3.010829e+02
         vertex 1.498568e+02 8.166000e+00 3.003812e+02
         vertex 1.483521e+02 8.166000e+00 3.010829e+02
      endloop
   endfacet
   facet normal 5.735744e-01 -0.000000e+00 8.191535e-01
      outer loop
         vertex 1.483521e+02 6.666000e+00 3.010829e+02
         vertex 1.483521e+02 8.166000e+00 3.010829e+02
         vertex 1.469920e+02 6.666000e+00 3.020352e+02
      endloop
   endfacet
   facet normal 5.735744e-01 -0.000000e+00 8.191535e-01
      outer loop
         vertex 1.469920e+02 6.666000e+00 3.020352e+02
         vertex 1.483521e+02 8.166000e+00 3.010829e+02
         vertex 1.469920e+02 8.166000e+00 3.020352e+02
      endloop
   endfacet
   facet normal 7.071090e-01 -0.000000e+00 7.071045e-01
      outer loop
         vertex 1.469920e+02 6.666000e+00 3.020352e+02
         vertex 1.469920e+02 8.166000e+00 3.020352e+02
         vertex 1.458180e+02 6.666000e+00 3.032092e+02
      endloop
   endfacet
   facet normal 7.071090e-01 -0.000000e+00 7.071045e-01
      outer loop
         vertex 1.458180e+02 6.666000e+00 3.032092e+02
         vertex 1.469920e+02 8.166000e+00 3.020352e+02
         vertex 1.458180e+02 8.166000e+00 3.032092e+02
      endloop
   endfacet
   facet normal 8.191520e-01 -0.000000e+00 5.735765e-01
      outer loop
         vertex 1.458180e+02 6.666000e+00 3.032092e+02
         vertex 1.458180e+02 8.166000e+00 3.032092e+02
         vertex 1.448657e+02 6.666000e+00 3.045693e+02
      endloop
   endfacet
   facet normal 8.191520e-01 -0.000000e+00 5.735765e-01
      outer loop
         vertex 1.448657e+02 6.666000e+00 3.045693e+02
         vertex 1.458180e+02 8.166000e+00 3.032092e+02
         vertex 1.448657e+02 8.166000e+00 3.045693e+02
      endloop
   endfacet
   facet normal 9.063075e-01 -0.000000e+00 4.226189e-01
      outer loop
         vertex 1.448657e+02 6.666000e+00 3.045693e+02
         vertex 1.448657e+02 8.166000e+00 3.045693e+02
         vertex 1.441640e+02 6.666000e+00 3.060740e+02
      endloop
   endfacet
   facet normal 9.063075e-01 -0.000000e+00 4.226189e-01
      outer loop
         vertex 1.441640e+02 6.666000e+00 3.060740e+02
         vertex 1.448657e+02 8.166000e+00 3.045693e+02
         vertex 1.441640e+02 8.166000e+00 3.060740e+02
      endloop
   endfacet
   facet normal 9.659262e-01 -0.000000e+00 2.588177e-01
      outer loop
         vertex 1.441640e+02 6.666000e+00 3.060740e+02
         vertex 1.441640e+02 8.166000e+00 3.060740e+02
         vertex 1.437343e+02 6.666000e+00 3.076778e+02
      endloop
   endfacet
   facet normal 9.659262e-01 -0.000000e+00 2.588177e-01
      outer loop
         vertex 1.437343e+02 6.666000e+00 3.076778e+02
         vertex 1.441640e+02 8.166000e+00 3.060740e+02
         vertex 1.437343e+02 8.166000e+00 3.076778e+02
      endloop
   endfacet
   facet normal 9.961948e-01 -0.000000e+00 8.715515e-02
      outer loop
         vertex 1.437343e+02 6.666000e+00 3.076778e+02
         vertex 1.437343e+02 8.166000e+00 3.076778e+02
         vertex 1.435896e+02 6.666000e+00 3.093318e+02
      endloop
   endfacet
   facet normal 9.961948e-01 -0.000000e+00 8.715515e-02
      outer loop
         vertex 1.435896e+02 6.666000e+00 3.093318e+02
         vertex 1.437343e+02 8.166000e+00 3.076778e+02
         vertex 1.435896e+02 8.166000e+00 3.093318e+02
      endloop
   endfacet
   facet normal 9.961948e-01 0.000000e+00 -8.715515e-02
      outer loop
         vertex 1.435896e+02 6.666000e+00 3.093318e+02
         vertex 1.435896e+02 8.166000e+00 3.093318e+02
         vertex 1.437343e+02 6.666000e+00 3.109858e+02
      endloop
   endfacet
   facet normal 9.961948e-01 0.000000e+00 -8.715515e-02
      outer loop
         vertex 1.437343e+02 6.666000e+00 3.109858e+02
         vertex 1.435896e+02 8.166000e+00 3.093318e+02
         vertex 1.437343e+02 8.166000e+00 3.109858e+02
      endloop
   endfacet
   facet normal 9.659262e-01 0.000000e+00 -2.588177e-01
      outer loop
         vertex 1.437343e+02 6.666000e+00 3.109858e+02
         vertex 1.437343e+02 8.166000e+00 3.109858e+02
         vertex 1.441640e+02 6.666000e+00 3.125895e+02
      endloop
   endfacet
   facet normal 9.659262e-01 0.000000e+00 -2.588177e-01
      outer loop
         vertex 1.441640e+02 6.666000e+00 3.125895e+02
         vertex 1.437343e+02 8.166000e+00 3.109858e+02
         vertex 1.441640e+02 8.166000e+00 3.125895e+02
      endloop
   endfacet
   facet normal 9.063075e-01 0.000000e+00 -4.226189e-01
      outer loop
         vertex 1.441640e+02 6.666000e+00 3.125895e+02
         vertex 1.441640e+02 8.166000e+00 3.125895e+02
         vertex 1.448657e+02 6.666000e+00 3.140943e+02
      endloop
   endfacet
   facet normal 9.063075e-01 0.000000e+00 -4.226189e-01
      outer loop
         vertex 1.448657e+02 6.666000e+00 3.140943e+02
         vertex 1.441640e+02 8.166000e+00 3.125895e+02
         vertex 1.448657e+02 8.166000e+00 3.140943e+02
      endloop
   endfacet
   facet normal 8.191520e-01 0.000000e+00 -5.735765e-01
      outer loop
         vertex 1.448657e+02 6.666000e+00 3.140943e+02
         vertex 1.448657e+02 8.166000e+00 3.140943e+02
         vertex 1.458180e+02 6.666000e+00 3.154543e+02
      endloop
   endfacet
   facet normal 8.191520e-01 0.000000e+00 -5.735765e-01
      outer loop
         vertex 1.458180e+02 6.666000e+00 3.154543e+02
         vertex 1.448657e+02 8.166000e+00 3.140943e+02
         vertex 1.458180e+02 8.166000e+00 3.154543e+02
      endloop
   endfacet
   facet normal 7.071068e-01 0.000000e+00 -7.071068e-01
      outer loop
         vertex 1.458180e+02 6.666000e+00 3.154543e+02
         vertex 1.458180e+02 8.166000e+00 3.154543e+02
         vertex 1.469920e+02 6.666000e+00 3.166284e+02
      endloop
   endfacet
   facet normal 7.071068e-01 0.000000e+00 -7.071068e-01
      outer loop
         vertex 1.469920e+02 6.666000e+00 3.166284e+02
         vertex 1.458180e+02 8.166000e+00 3.154543e+02
         vertex 1.469920e+02 8.166000e+00 3.166284e+02
      endloop
   endfacet
   facet normal 5.735744e-01 0.000000e+00 -8.191535e-01
      outer loop
         vertex 1.469920e+02 6.666000e+00 3.166284e+02
         vertex 1.469920e+02 8.166000e+00 3.166284e+02
         vertex 1.483521e+02 6.666000e+00 3.175807e+02
      endloop
   endfacet
   facet normal 5.735744e-01 0.000000e+00 -8.191535e-01
      outer loop
         vertex 1.483521e+02 6.666000e+00 3.175807e+02
         vertex 1.469920e+02 8.166000e+00 3.166284e+02
         vertex 1.483521e+02 8.166000e+00 3.175807e+02
      endloop
   endfacet
   facet normal 4.226206e-01 0.000000e+00 -9.063067e-01
      outer loop
         vertex 1.483521e+02 6.666000e+00 3.175807e+02
         vertex 1.483521e+02 8.166000e+00 3.175807e+02
         vertex 1.498568e+02 6.666000e+00 3.182824e+02
      endloop
   endfacet
   facet normal 4.226206e-01 0.000000e+00 -9.063067e-01
      outer loop
         vertex 1.498568e+02 6.666000e+00 3.182824e+02
         vertex 1.483521e+02 8.166000e+00 3.175807e+02
         vertex 1.498568e+02 8.166000e+00 3.182824e+02
      endloop
   endfacet
   facet normal 2.588207e-01 0.000000e+00 -9.659254e-01
      outer loop
         vertex 1.498568e+02 6.666000e+00 3.182824e+02
         vertex 1.498568e+02 8.166000e+00 3.182824e+02
         vertex 1.514606e+02 6.666000e+00 3.187121e+02
      endloop
   endfacet
   facet normal 2.588207e-01 0.000000e+00 -9.659254e-01
      outer loop
         vertex 1.514606e+02 6.666000e+00 3.187121e+02
         vertex 1.498568e+02 8.166000e+00 3.182824e+02
         vertex 1.514606e+02 8.166000e+00 3.187121e+02
      endloop
   endfacet
   facet normal 8.715515e-02 0.000000e+00 -9.961948e-01
      outer loop
         vertex 1.514606e+02 6.666000e+00 3.187121e+02
         vertex 1.514606e+02 8.166000e+00 3.187121e+02
         vertex 1.531146e+02 6.666000e+00 3.188568e+02
      endloop
   endfacet
   facet normal 8.715515e-02 0.000000e+00 -9.961948e-01
      outer loop
         vertex 1.531146e+02 6.666000e+00 3.188568e+02
         vertex 1.514606e+02 8.166000e+00 3.187121e+02
         vertex 1.531146e+02 8.166000e+00 3.188568e+02
      endloop
   endfacet
   facet normal -4.921835e-01 -2.220446e-16 -8.704915e-01
      outer loop
         vertex 4.704064e+01 1.666000e+00 3.719038e+02
         vertex 1.166800e+02 1.666000e+00 3.325291e+02
         vertex 4.704064e+01 6.600000e-02 3.719038e+02
      endloop
   endfacet
   facet normal -4.921835e-01 -2.220446e-16 -8.704915e-01
      outer loop
         vertex 4.704064e+01 6.600000e-02 3.719038e+02
         vertex 1.166800e+02 1.666000e+00 3.325291e+02
         vertex 1.166800e+02 6.600000e-02 3.325291e+02
      endloop
   endfacet
   facet normal -8.704915e-01 3.284293e-47 4.921835e-01
      outer loop
         vertex 8.641532e+01 1.666000e+00 4.415431e+02
         vertex 4.704064e+01 1.666000e+00 3.719038e+02
         vertex 8.641532e+01 6.600000e-02 4.415431e+02
      endloop
   endfacet
   facet normal -8.704915e-01 3.284293e-47 4.921835e-01
      outer loop
         vertex 8.641532e+01 6.600000e-02 4.415431e+02
         vertex 4.704064e+01 1.666000e+00 3.719038e+02
         vertex 4.704064e+01 6.600000e-02 3.719038e+02
      endloop
   endfacet
   facet normal 4.921835e-01 2.220446e-16 8.704915e-01
      outer loop
         vertex 1.560546e+02 1.666000e+00 4.021684e+02
         vertex 8.641532e+01 1.666000e+00 4.415431e+02
         vertex 1.560546e+02 6.600000e-02 4.021684e+02
      endloop
   endfacet
   facet normal 4.921835e-01 2.220446e-16 8.704915e-01
      outer loop
         vertex 1.560546e+02 6.600000e-02 4.021684e+02
         vertex 8.641532e+01 1.666000e+00 4.415431e+02
         vertex 8.641532e+01 6.600000e-02 4.415431e+02
      endloop
   endfacet
   facet normal 8.704915e-01 -3.284293e-47 -4.921835e-01
      outer loop
         vertex 1.166800e+02 1.666000e+00 3.325291e+02
         vertex 1.560546e+02 1.666000e+00 4.021684e+02
         vertex 1.166800e+02 6.600000e-02 3.325291e+02
      endloop
   endfacet
   facet normal 8.704915e-01 -3.284293e-47 -4.921835e-01
      outer loop
         vertex 1.166800e+02 6.600000e-02 3.325291e+02
         vertex 1.560546e+02 1.666000e+00 4.021684e+02
         vertex 1.560546e+02 6.600000e-02 4.021684e+02
      endloop
   endfacet
   facet normal 1.092867e-16 1.000000e+00 1.932879e-16
      outer loop
         vertex 8.641532e+01 1.666000e+00 4.415431e+02
         vertex 1.560546e+02 1.666000e+00 4.021684e+02
         vertex 4.704064e+01 1.666000e+00 3.719038e+02
      endloop
   endfacet
   facet normal 1.092867e-16 1.000000e+00 1.932879e-16
      outer loop
         vertex 4.704064e+01 1.666000e+00 3.719038e+02
         vertex 1.560546e+02 1.666000e+00 4.021684e+02
         vertex 1.166800e+02 1.666000e+00 3.325291e+02
      endloop
   endfacet
   facet normal -1.092867e-16 -1.000000e+00 -1.932879e-16
      outer loop
         vertex 1.560546e+02 6.600000e-02 4.021684e+02
         vertex 8.641532e+01 6.600000e-02 4.415431e+02
         vertex 1.166800e+02 6.600000e-02 3.325291e+02
      endloop
   endfacet
   facet normal -1.092867e-16 -1.000000e+00 -1.932879e-16
      outer loop
         vertex 1.166800e+02 6.600000e-02 3.325291e+02
         vertex 8.641532e+01 6.600000e-02 4.415431e+02
         vertex 4.704064e+01 6.600000e-02 3.719038e+02
      endloop
   endfacet
   facet normal -4.921835e-01 -2.220446e-16 -8.704915e-01
      outer loop
         vertex 1.036998e+02 6.666000e+00 3.502072e+02
         vertex 1.106637e+02 6.666000e+00 3.462697e+02
         vertex 1.036998e+02 1.666000e+00 3.502072e+02
      endloop
   endfacet
   facet normal -4.921835e-01 -2.220446e-16 -8.704915e-01
      outer loop
         vertex 1.036998e+02 1.666000e+00 3.502072e+02
         vertex 1.106637e+02 6.666000e+00 3.462697e+02
         vertex 1.106637e+02 1.666000e+00 3.462697e+02
      endloop
   endfacet
   facet normal -8.704915e-01 3.284293e-47 4.921835e-01
      outer loop
         vertex 1.342152e+02 6.666000e+00 4.041777e+02
         vertex 1.036998e+02 6.666000e+00 3.502072e+02
         vertex 1.342152e+02 1.666000e+00 4.041777e+02
      endloop
   endfacet
   facet normal -8.704915e-01 3.284293e-47 4.921835e-01
      outer loop
         vertex 1.342152e+02 1.666000e+00 4.041777e+02
         vertex 1.036998e+02 6.666000e+00 3.502072e+02
         vertex 1.036998e+02 1.666000e+00 3.502072e+02
      endloop
   endfacet
   facet normal 4.921835e-01 2.220446e-16 8.704915e-01
      outer loop
         vertex 1.411791e+02 6.666000e+00 4.002402e+02
         vertex 1.342152e+02 6.666000e+00 4.041777e+02
         vertex 1.411791e+02 1.666000e+00 4.002402e+02
      endloop
   endfacet
   facet normal 4.921835e-01 2.220446e-16 8.704915e-01
      outer loop
         vertex 1.411791e+02 1.666000e+00 4.002402e+02
         vertex 1.342152e+02 6.666000e+00 4.041777e+02
         vertex 1.342152e+02 1.666000e+00 4.041777e+02
      endloop
   endfacet
   facet normal 8.704915e-01 -3.284293e-47 -4.921835e-01
      outer loop
         vertex 1.106637e+02 6.666000e+00 3.462697e+02
         vertex 1.411791e+02 6.666000e+00 4.002402e+02
         vertex 1.106637e+02 1.666000e+00 3.462697e+02
      endloop
   endfacet
   facet normal 8.704915e-01 -3.284293e-47 -4.921835e-01
      outer loop
         vertex 1.106637e+02 1.666000e+00 3.462697e+02
         vertex 1.411791e+02 6.666000e+00 4.002402e+02
         vertex 1.411791e+02 1.666000e+00 4.002402e+02
      endloop
   endfacet
   facet normal 1.092867e-16 1.000000e+00 1.932879e-16
      outer loop
         vertex 1.342152e+02 6.666000e+00 4.041777e+02
         vertex 1.411791e+02 6.666000e+00 4.002402e+02
         vertex 1.036998e+02 6.666000e+00 3.502072e+02
      endloop
   endfacet
   facet normal 1.092867e-16 1.000000e+00 1.932879e-16
      outer loop
         vertex 1.036998e+02 6.666000e+00 3.502072e+02
         vertex 1.411791e+02 6.666000e+00 4.002402e+02
         vertex 1.106637e+02 6.666000e+00 3.462697e+02
      endloop
   endfacet
   facet normal -1.092867e-16 -1.000000e+00 -1.932879e-16
      outer loop
         vertex 1.411791e+02 1.666000e+00 4.002402e+02
         vertex 1.342152e+02 1.666000e+00 4.041777e+02
         vertex 1.106637e+02 1.666000e+00 3.462697e+02
      endloop
   endfacet
   facet normal -1.092867e-16 -1.000000e+00 -1.932879e-16
      outer loop
         vertex 1.106637e+02 1.666000e+00 3.462697e+02
         vertex 1.342152e+02 1.666000e+00 4.041777e+02
         vertex 1.036998e+02 1.666000e+00 3.502072e+02
      endloop
   endfacet
   facet normal -4.921835e-01 -2.220446e-16 -8.704915e-01
      outer loop
         vertex 8.587688e+01 4.666000e+00 3.826856e+02
         vertex 1.058982e+02 4.666000e+00 3.713653e+02
         vertex 8.587688e+01 1.666000e+00 3.826856e+02
      endloop
   endfacet
   facet normal -4.921835e-01 -2.220446e-16 -8.704915e-01
      outer loop
         vertex 8.587688e+01 1.666000e+00 3.826856e+02
         vertex 1.058982e+02 4.666000e+00 3.713653e+02
         vertex 1.058982e+02 1.666000e+00 3.713653e+02
      endloop
   endfacet
   facet normal -8.704915e-01 3.284293e-47 4.921835e-01
      outer loop
         vertex 9.719710e+01 4.666000e+00 4.027069e+02
         vertex 8.587688e+01 4.666000e+00 3.826856e+02
         vertex 9.719710e+01 1.666000e+00 4.027069e+02
      endloop
   endfacet
   facet normal -8.704915e-01 3.284293e-47 4.921835e-01
      outer loop
         vertex 9.719710e+01 1.666000e+00 4.027069e+02
         vertex 8.587688e+01 4.666000e+00 3.826856e+02
         vertex 8.587688e+01 1.666000e+00 3.826856e+02
      endloop
   endfacet
   facet normal 4.921835e-01 2.220446e-16 8.704915e-01
      outer loop
         vertex 1.172184e+02 4.666000e+00 3.913866e+02
         vertex 9.719710e+01 4.666000e+00 4.027069e+02
         vertex 1.172184e+02 1.666000e+00 3.913866e+02
      endloop
   endfacet
   facet normal 4.921835e-01 2.220446e-16 8.704915e-01
      outer loop
         vertex 1.172184e+02 1.666000e+00 3.913866e+02
         vertex 9.719710e+01 4.666000e+00 4.027069e+02
         vertex 9.719710e+01 1.666000e+00 4.027069e+02
      endloop
   endfacet
   facet normal 8.704915e-01 -3.284293e-47 -4.921835e-01
      outer loop
         vertex 1.058982e+02 4.666000e+00 3.713653e+02
         vertex 1.172184e+02 4.666000e+00 3.913866e+02
         vertex 1.058982e+02 1.666000e+00 3.713653e+02
      endloop
   endfacet
   facet normal 8.704915e-01 -3.284293e-47 -4.921835e-01
      outer loop
         vertex 1.058982e+02 1.666000e+00 3.713653e+02
         vertex 1.172184e+02 4.666000e+00 3.913866e+02
         vertex 1.172184e+02 1.666000e+00 3.913866e+02
      endloop
   endfacet
   facet normal 1.092867e-16 1.000000e+00 1.932879e-16
      outer loop
         vertex 9.719710e+01 4.666000e+00 4.027069e+02
         vertex 1.172184e+02 4.666000e+00 3.913866e+02
         vertex 8.587688e+01 4.666000e+00 3.826856e+02
      endloop
   endfacet
   facet normal 1.092867e-16 1.000000e+00 1.932879e-16
      outer loop
         vertex 8.587688e+01 4.666000e+00 3.826856e+02
         vertex 1.172184e+02 4.666000e+00 3.913866e+02
         vertex 1.058982e+02 4.666000e+00 3.713653e+02
      endloop
   endfacet
   facet normal -1.092867e-16 -1.000000e+00 -1.932879e-16
      outer loop
         vertex 1.172184e+02 1.666000e+00 3.913866e+02
         vertex 9.719710e+01 1.666000e+00 4.027069e+02
         vertex 1.058982e+02 1.666000e+00 3.713653e+02
      endloop
   endfacet
   facet normal -1.092867e-16 -1.000000e+00 -1.932879e-16
      outer loop
         vertex 1.058982e+02 1.666000e+00 3.713653e+02
         vertex 9.719710e+01 1.666000e+00 4.027069e+02
         vertex 8.587688e+01 1.666000e+00 3.826856e+02
      endloop
   endfacet
   facet normal -4.921835e-01 -2.220446e-16 -8.704915e-01
      outer loop
         vertex 6.191619e+01 6.666000e+00 3.738320e+02
         vertex 6.888013e+01 6.666000e+00 3.698945e+02
         vertex 6.191619e+01 1.666000e+00 3.738320e+02
      endloop
   endfacet
   facet normal -4.921835e-01 -2.220446e-16 -8.704915e-01
      outer loop
         vertex 6.191619e+01 1.666000e+00 3.738320e+02
         vertex 6.888013e+01 6.666000e+00 3.698945e+02
         vertex 6.888013e+01 1.666000e+00 3.698945e+02
      endloop
   endfacet
   facet normal -8.704915e-01 3.284293e-47 4.921835e-01
      outer loop
         vertex 9.243157e+01 6.666000e+00 4.278025e+02
         vertex 6.191619e+01 6.666000e+00 3.738320e+02
         vertex 9.243157e+01 1.666000e+00 4.278025e+02
      endloop
   endfacet
   facet normal -8.704915e-01 3.284293e-47 4.921835e-01
      outer loop
         vertex 9.243157e+01 1.666000e+00 4.278025e+02
         vertex 6.191619e+01 6.666000e+00 3.738320e+02
         vertex 6.191619e+01 1.666000e+00 3.738320e+02
      endloop
   endfacet
   facet normal 4.921835e-01 2.220446e-16 8.704915e-01
      outer loop
         vertex 9.939550e+01 6.666000e+00 4.238650e+02
         vertex 9.243157e+01 6.666000e+00 4.278025e+02
         vertex 9.939550e+01 1.666000e+00 4.238650e+02
      endloop
   endfacet
   facet normal 4.921835e-01 2.220446e-16 8.704915e-01
      outer loop
         vertex 9.939550e+01 1.666000e+00 4.238650e+02
         vertex 9.243157e+01 6.666000e+00 4.278025e+02
         vertex 9.243157e+01 1.666000e+00 4.278025e+02
      endloop
   endfacet
   facet normal 8.704915e-01 -3.284293e-47 -4.921835e-01
      outer loop
         vertex 6.888013e+01 6.666000e+00 3.698945e+02
         vertex 9.939550e+01 6.666000e+00 4.238650e+02
         vertex 6.888013e+01 1.666000e+00 3.698945e+02
      endloop
   endfacet
   facet normal 8.704915e-01 -3.284293e-47 -4.921835e-01
      outer loop
         vertex 6.888013e+01 1.666000e+00 3.698945e+02
         vertex 9.939550e+01 6.666000e+00 4.238650e+02
         vertex 9.939550e+01 1.666000e+00 4.238650e+02
      endloop
   endfacet
   facet normal 1.092867e-16 1.000000e+00 1.932879e-16
      outer loop
         vertex 9.243157e+01 6.666000e+00 4.278025e+02
         vertex 9.939550e+01 6.666000e+00 4.238650e+02
         vertex 6.191619e+01 6.666000e+00 3.738320e+02
      endloop
   endfacet
   facet normal 1.092867e-16 1.000000e+00 1.932879e-16
      outer loop
         vertex 6.191619e+01 6.666000e+00 3.738320e+02
         vertex 9.939550e+01 6.666000e+00 4.238650e+02
         vertex 6.888013e+01 6.666000e+00 3.698945e+02
      endloop
   endfacet
   facet normal -1.092867e-16 -1.000000e+00 -1.932879e-16
      outer loop
         vertex 9.939550e+01 1.666000e+00 4.238650e+02
         vertex 9.243157e+01 1.666000e+00 4.278025e+02
         vertex 6.888013e+01 1.666000e+00 3.698945e+02
      endloop
   endfacet
   facet normal -1.092867e-16 -1.000000e+00 -1.932879e-16
      outer loop
         vertex 6.888013e+01 1.666000e+00 3.698945e+02
         vertex 9.243157e+01 1.666000e+00 4.278025e+02
         vertex 6.191619e+01 1.666000e+00 3.738320e+02
      endloop
   endfacet
   facet normal -4.921835e-01 -2.220446e-16 -8.704915e-01
      outer loop
         vertex 3.285533e+00 1.666000e+00 2.945171e+02
         vertex 7.292485e+01 1.666000e+00 2.551424e+02
         vertex 3.285533e+00 6.600000e-02 2.945171e+02
      endloop
   endfacet
   facet normal -4.921835e-01 -2.220446e-16 -8.704915e-01
      outer loop
         vertex 3.285533e+00 6.600000e-02 2.945171e+02
         vertex 7.292485e+01 1.666000e+00 2.551424e+02
         vertex 7.292485e+01 6.600000e-02 2.551424e+02
      endloop
   endfacet
   facet normal -8.704915e-01 3.284293e-47 4.921835e-01
      outer loop
         vertex 4.266021e+01 1.666000e+00 3.641564e+02
         vertex 3.285533e+00 1.666000e+00 2.945171e+02
         vertex 4.266021e+01 6.600000e-02 3.641564e+02
      endloop
   endfacet
   facet normal -8.704915e-01 3.284293e-47 4.921835e-01
      outer loop
         vertex 4.266021e+01 6.600000e-02 3.641564e+02
         vertex 3.285533e+00 1.666000e+00 2.945171e+02
         vertex 3.285533e+00 6.600000e-02 2.945171e+02
      endloop
   endfacet
   facet normal 4.921835e-01 2.220446e-16 8.704915e-01
      outer loop
         vertex 1.122995e+02 1.666000e+00 3.247817e+02
         vertex 4.266021e+01 1.666000e+00 3.641564e+02
         vertex 1.122995e+02 6.600000e-02 3.247817e+02
      endloop
   endfacet
   facet normal 4.921835e-01 2.220446e-16 8.704915e-01
      outer loop
         vertex 1.122995e+02 6.600000e-02 3.247817e+02
         vertex 4.266021e+01 1.666000e+00 3.641564e+02
         vertex 4.266021e+01 6.600000e-02 3.641564e+02
      endloop
   endfacet
   facet normal 8.704915e-01 -3.284293e-47 -4.921835e-01
      outer loop
         vertex 7.292485e+01 1.666000e+00 2.551424e+02
         vertex 1.122995e+02 1.666000e+00 3.247817e+02
         vertex 7.292485e+01 6.600000e-02 2.551424e+02
      endloop
   endfacet
   facet normal 8.704915e-01 -3.284293e-47 -4.921835e-01
      outer loop
         vertex 7.292485e+01 6.600000e-02 2.551424e+02
         vertex 1.122995e+02 1.666000e+00 3.247817e+02
         vertex 1.122995e+02 6.600000e-02 3.247817e+02
      endloop
   endfacet
   facet normal 1.092867e-16 1.000000e+00 1.932879e-16
      outer loop
         vertex 4.266021e+01 1.666000e+00 3.641564e+02
         vertex 1.122995e+02 1.666000e+00 3.247817e+02
         vertex 3.285533e+00 1.666000e+00 2.945171e+02
      endloop
   endfacet
   facet normal 1.092867e-16 1.000000e+00 1.932879e-16
      outer loop
         vertex 3.285533e+00 1.666000e+00 2.945171e+02
         vertex 1.122995e+02 1.666000e+00 3.247817e+02
         vertex 7.292485e+01 1.666000e+00 2.551424e+02
      endloop
   endfacet
   facet normal -1.092867e-16 -1.000000e+00 -1.932879e-16
      outer loop
         vertex 1.122995e+02 6.600000e-02 3.247817e+02
         vertex 4.266021e+01 6.600000e-02 3.641564e+02
         vertex 7.292485e+01 6.600000e-02 2.551424e+02
      endloop
   endfacet
   facet normal -1.092867e-16 -1.000000e+00 -1.932879e-16
      outer loop
         vertex 7.292485e+01 6.600000e-02 2.551424e+02
         vertex 4.266021e+01 6.600000e-02 3.641564e+02
         vertex 3.285533e+00 6.600000e-02 2.945171e+02
      endloop
   endfacet
   facet normal -4.921835e-01 -2.220446e-16 -8.704915e-01
      outer loop
         vertex 5.994467e+01 6.666000e+00 2.728205e+02
         vertex 6.690861e+01 6.666000e+00 2.688830e+02
         vertex 5.994467e+01 1.666000e+00 2.728205e+02
      endloop
   endfacet
   facet normal -4.921835e-01 -2.220446e-16 -8.704915e-01
      outer loop
         vertex 5.994467e+01 1.666000e+00 2.728205e+02
         vertex 6.690861e+01 6.666000e+00 2.688830e+02
         vertex 6.690861e+01 1.666000e+00 2.688830e+02
      endloop
   endfacet
   facet normal -8.704915e-01 3.284293e-47 4.921835e-01
      outer loop
         vertex 9.046005e+01 6.666000e+00 3.267910e+02
         vertex 5.994467e+01 6.666000e+00 2.728205e+02
         vertex 9.046005e+01 1.666000e+00 3.267910e+02
      endloop
   endfacet
   facet normal -8.704915e-01 3.284293e-47 4.921835e-01
      outer loop
         vertex 9.046005e+01 1.666000e+00 3.267910e+02
         vertex 5.994467e+01 6.666000e+00 2.728205e+02
         vertex 5.994467e+01 1.666000e+00 2.728205e+02
      endloop
   endfacet
   facet normal 4.921835e-01 2.220446e-16 8.704915e-01
      outer loop
         vertex 9.742398e+01 6.666000e+00 3.228535e+02
         vertex 9.046005e+01 6.666000e+00 3.267910e+02
         vertex 9.742398e+01 1.666000e+00 3.228535e+02
      endloop
   endfacet
   facet normal 4.921835e-01 2.220446e-16 8.704915e-01
      outer loop
         vertex 9.742398e+01 1.666000e+00 3.228535e+02
         vertex 9.046005e+01 6.666000e+00 3.267910e+02
         vertex 9.046005e+01 1.666000e+00 3.267910e+02
      endloop
   endfacet
   facet normal 8.704915e-01 -3.284293e-47 -4.921835e-01
      outer loop
         vertex 6.690861e+01 6.666000e+00 2.688830e+02
         vertex 9.742398e+01 6.666000e+00 3.228535e+02
         vertex 6.690861e+01 1.666000e+00 2.688830e+02
      endloop
   endfacet
   facet normal 8.704915e-01 -3.284293e-47 -4.921835e-01
      outer loop
         vertex 6.690861e+01 1.666000e+00 2.688830e+02
         vertex 9.742398e+01 6.666000e+00 3.228535e+02
         vertex 9.742398e+01 1.666000e+00 3.228535e+02
      endloop
   endfacet
   facet normal 1.092867e-16 1.000000e+00 1.932879e-16
      outer loop
         vertex 9.046005e+01 6.666000e+00 3.267910e+02
         vertex 9.742398e+01 6.666000e+00 3.228535e+02
         vertex 5.994467e+01 6.666000e+00 2.728205e+02
      endloop
   endfacet
   facet normal 1.092867e-16 1.000000e+00 1.932879e-16
      outer loop
         vertex 5.994467e+01 6.666000e+00 2.728205e+02
         vertex 9.742398e+01 6.666000e+00 3.228535e+02
         vertex 6.690861e+01 6.666000e+00 2.688830e+02
      endloop
   endfacet
   facet normal -1.092867e-16 -1.000000e+00 -1.932879e-16
      outer loop
         vertex 9.742398e+01 1.666000e+00 3.228535e+02
         vertex 9.046005e+01 1.666000e+00 3.267910e+02
         vertex 6.690861e+01 1.666000e+00 2.688830e+02
      endloop
   endfacet
   facet normal -1.092867e-16 -1.000000e+00 -1.932879e-16
      outer loop
         vertex 6.690861e+01 1.666000e+00 2.688830e+02
         vertex 9.046005e+01 1.666000e+00 3.267910e+02
         vertex 5.994467e+01 1.666000e+00 2.728205e+02
      endloop
   endfacet
   facet normal -4.921835e-01 -2.220446e-16 -8.704915e-01
      outer loop
         vertex 4.212177e+01 4.666000e+00 3.052989e+02
         vertex 6.214307e+01 4.666000e+00 2.939787e+02
         vertex 4.212177e+01 1.666000e+00 3.052989e+02
      endloop
   endfacet
   facet normal -4.921835e-01 -2.220446e-16 -8.704915e-01
      outer loop
         vertex 4.212177e+01 1.666000e+00 3.052989e+02
         vertex 6.214307e+01 4.666000e+00 2.939787e+02
         vertex 6.214307e+01 1.666000e+00 2.939787e+02
      endloop
   endfacet
   facet normal -8.704915e-01 3.284293e-47 4.921835e-01
      outer loop
         vertex 5.344199e+01 4.666000e+00 3.253202e+02
         vertex 4.212177e+01 4.666000e+00 3.052989e+02
         vertex 5.344199e+01 1.666000e+00 3.253202e+02
      endloop
   endfacet
   facet normal -8.704915e-01 3.284293e-47 4.921835e-01
      outer loop
         vertex 5.344199e+01 1.666000e+00 3.253202e+02
         vertex 4.212177e+01 4.666000e+00 3.052989e+02
         vertex 4.212177e+01 1.666000e+00 3.052989e+02
      endloop
   endfacet
   facet normal 4.921835e-01 2.220446e-16 8.704915e-01
      outer loop
         vertex 7.346329e+01 4.666000e+00 3.140000e+02
         vertex 5.344199e+01 4.666000e+00 3.253202e+02
         vertex 7.346329e+01 1.666000e+00 3.140000e+02
      endloop
   endfacet
   facet normal 4.921835e-01 2.220446e-16 8.704915e-01
      outer loop
         vertex 7.346329e+01 1.666000e+00 3.140000e+02
         vertex 5.344199e+01 4.666000e+00 3.253202e+02
         vertex 5.344199e+01 1.666000e+00 3.253202e+02
      endloop
   endfacet
   facet normal 8.704915e-01 -3.284293e-47 -4.921835e-01
      outer loop
         vertex 6.214307e+01 4.666000e+00 2.939787e+02
         vertex 7.346329e+01 4.666000e+00 3.140000e+02
         vertex 6.214307e+01 1.666000e+00 2.939787e+02
      endloop
   endfacet
   facet normal 8.704915e-01 -3.284293e-47 -4.921835e-01
      outer loop
         vertex 6.214307e+01 1.666000e+00 2.939787e+02
         vertex 7.346329e+01 4.666000e+00 3.140000e+02
         vertex 7.346329e+01 1.666000e+00 3.140000e+02
      endloop
   endfacet
   facet normal 1.092867e-16 1.000000e+00 1.932879e-16
      outer loop
         vertex 5.344199e+01 4.666000e+00 3.253202e+02
         vertex 7.346329e+01 4.666000e+00 3.140000e+02
         vertex 4.212177e+01 4.666000e+00 3.052989e+02
      endloop
   endfacet
   facet normal 1.092867e-16 1.000000e+00 1.932879e-16
      outer loop
         vertex 4.212177e+01 4.666000e+00 3.052989e+02
         vertex 7.346329e+01 4.666000e+00 3.140000e+02
         vertex 6.214307e+01 4.666000e+00 2.939787e+02
      endloop
   endfacet
   facet normal -1.092867e-16 -1.000000e+00 -1.932879e-16
      outer loop
         vertex 7.346329e+01 1.666000e+00 3.140000e+02
         vertex 5.344199e+01 1.666000e+00 3.253202e+02
         vertex 6.214307e+01 1.666000e+00 2.939787e+02
      endloop
   endfacet
   facet normal -1.092867e-16 -1.000000e+00 -1.932879e-16
      outer loop
         vertex 6.214307e+01 1.666000e+00 2.939787e+02
         vertex 5.344199e+01 1.666000e+00 3.253202e+02
         vertex 4.212177e+01 1.666000e+00 3.052989e+02
      endloop
   endfacet
   facet normal -4.921835e-01 -2.220446e-16 -8.704915e-01
      outer loop
         vertex 1.816108e+01 6.666000e+00 2.964453e+02
         vertex 2.512501e+01 6.666000e+00 2.925078e+02
         vertex 1.816108e+01 1.666000e+00 2.964453e+02
      endloop
   endfacet
   facet normal -4.921835e-01 -2.220446e-16 -8.704915e-01
      outer loop
         vertex 1.816108e+01 1.666000e+00 2.964453e+02
         vertex 2.512501e+01 6.666000e+00 2.925078e+02
         vertex 2.512501e+01 1.666000e+00 2.925078e+02
      endloop
   endfacet
   facet normal -8.704915e-01 3.284293e-47 4.921835e-01
      outer loop
         vertex 4.867646e+01 6.666000e+00 3.504158e+02
         vertex 1.816108e+01 6.666000e+00 2.964453e+02
         vertex 4.867646e+01 1.666000e+00 3.504158e+02
      endloop
   endfacet
   facet normal -8.704915e-01 3.284293e-47 4.921835e-01
      outer loop
         vertex 4.867646e+01 1.666000e+00 3.504158e+02
         vertex 1.816108e+01 6.666000e+00 2.964453e+02
         vertex 1.816108e+01 1.666000e+00 2.964453e+02
      endloop
   endfacet
   facet normal 4.921835e-01 2.220446e-16 8.704915e-01
      outer loop
         vertex 5.564039e+01 6.666000e+00 3.464783e+02
         vertex 4.867646e+01 6.666000e+00 3.504158e+02
         vertex 5.564039e+01 1.666000e+00 3.464783e+02
      endloop
   endfacet
   facet normal 4.921835e-01 2.220446e-16 8.704915e-01
      outer loop
         vertex 5.564039e+01 1.666000e+00 3.464783e+02
         vertex 4.867646e+01 6.666000e+00 3.504158e+02
         vertex 4.867646e+01 1.666000e+00 3.504158e+02
      endloop
   endfacet
   facet normal 8.704915e-01 -3.284293e-47 -4.921835e-01
      outer loop
         vertex 2.512501e+01 6.666000e+00 2.925078e+02
         vertex 5.564039e+01 6.666000e+00 3.464783e+02
         vertex 2.512501e+01 1.666000e+00 2.925078e+02
      endloop
   endfacet
   facet normal 8.704915e-01 -3.284293e-47 -4.921835e-01
      outer loop
         vertex 2.512501e+01 1.666000e+00 2.925078e+02
         vertex 5.564039e+01 6.666000e+00 3.464783e+02
         vertex 5.564039e+01 1.666000e+00 3.464783e+02
      endloop
   endfacet
   facet normal 1.092867e-16 1.000000e+00 1.932879e-16
      outer loop
         vertex 4.867646e+01 6.666000e+00 3.504158e+02
         vertex 5.564039e+01 6.666000e+00 3.464783e+02
         vertex 1.816108e+01 6.666000e+00 2.964453e+02
      endloop
   endfacet
   facet normal 1.092867e-16 1.000000e+00 1.932879e-16
      outer loop
         vertex 1.816108e+01 6.666000e+00 2.964453e+02
         vertex 5.564039e+01 6.666000e+00 3.464783e+02
         vertex 2.512501e+01 6.666000e+00 2.925078e+02
      endloop
   endfacet
   facet normal -1.092867e-16 -1.000000e+00 -1.932879e-16
      outer loop
         vertex 5.564039e+01 1.666000e+00 3.464783e+02
         vertex 4.867646e+01 1.666000e+00 3.504158e+02
         vertex 2.512501e+01 1.666000e+00 2.925078e+02
      endloop
   endfacet
   facet normal -1.092867e-16 -1.000000e+00 -1.932879e-16
      outer loop
         vertex 2.512501e+01 1.666000e+00 2.925078e+02
         vertex 4.867646e+01 1.666000e+00 3.504158e+02
         vertex 1.816108e+01 1.666000e+00 2.964453e+02
      endloop
   endfacet
endsolid